<svg xmlns="http://www.w3.org/2000/svg" xmlns:xlink="http://www.w3.org/1999/xlink" width="500" zoomAndPan="magnify" viewBox="0 0 375 374.999991" height="500" preserveAspectRatio="xMidYMid meet" version="1.0"><defs><g/><clipPath id="0e160d567f"><path d="M 0.199219 30 L 1 30 L 1 31 L 0.199219 31 Z M 0.199219 30 " clip-rule="nonzero"/></clipPath><clipPath id="1d7d298813"><rect x="0" width="196" y="0" height="43"/></clipPath></defs><g transform="matrix(1, 0, 0, 1, 91, 156)"><g clip-path="url(#1d7d298813)"><g clip-path="url(#0e160d567f)"><g fill="#2e2a27" fill-opacity="1"><g transform="translate(0.462003, 30.913027)"><g/></g></g></g><g fill="#2e2a27" fill-opacity="1"><g transform="translate(11.067473, 30.913027)"><g><path d="M 2.09375 -0.296875 C 2.570312 -0.296875 2.976562 -0.453125 3.3125 -0.765625 C 3.644531 -1.078125 3.820312 -1.457031 3.84375 -1.90625 L 3.84375 -16.234375 C 3.820312 -16.679688 3.632812 -17.066406 3.28125 -17.390625 C 2.925781 -17.710938 2.507812 -17.875 2.03125 -17.875 L 1.671875 -17.875 L 1.671875 -18.171875 L 7.9375 -18.171875 L 7.9375 -17.875 L 7.578125 -17.875 C 7.085938 -17.875 6.664062 -17.710938 6.3125 -17.390625 C 5.957031 -17.066406 5.78125 -16.679688 5.78125 -16.234375 L 5.78125 -0.9375 L 10.515625 -0.9375 C 11.441406 -0.9375 12.226562 -1.097656 12.875 -1.421875 C 13.519531 -1.742188 14.007812 -2.125 14.34375 -2.5625 C 14.675781 -3.007812 15.003906 -3.597656 15.328125 -4.328125 L 15.640625 -4.328125 L 13.96875 0 L 1.671875 0 L 1.671875 -0.296875 Z M 2.09375 -0.296875 "/></g></g></g><g fill="#2e2a27" fill-opacity="1"><g transform="translate(30.333582, 30.913027)"><g><path d="M 2.09375 -0.296875 C 2.632812 -0.296875 3.109375 -0.457031 3.515625 -0.78125 C 3.921875 -1.101562 4.125 -1.488281 4.125 -1.9375 L 4.125 -16.234375 C 4.125 -16.679688 3.921875 -17.066406 3.515625 -17.390625 C 3.109375 -17.710938 2.625 -17.875 2.0625 -17.875 L 1.671875 -17.875 L 1.671875 -18.171875 L 8.515625 -18.171875 L 8.515625 -17.875 L 8.125 -17.875 C 7.570312 -17.875 7.097656 -17.722656 6.703125 -17.421875 C 6.316406 -17.117188 6.101562 -16.742188 6.0625 -16.296875 L 6.0625 -1.90625 C 6.082031 -1.457031 6.289062 -1.078125 6.6875 -0.765625 C 7.09375 -0.453125 7.570312 -0.296875 8.125 -0.296875 L 8.515625 -0.296875 L 8.546875 0 L 1.671875 0 L 1.671875 -0.296875 Z M 2.09375 -0.296875 "/></g></g></g><g fill="#2e2a27" fill-opacity="1"><g transform="translate(43.541637, 30.913027)"><g><path d="M 13.6875 -15.65625 C 14 -15.070312 14.15625 -14.363281 14.15625 -13.53125 C 14.15625 -12.707031 13.820312 -11.945312 13.15625 -11.25 C 12.488281 -10.550781 11.707031 -10.09375 10.8125 -9.875 C 12.289062 -9.71875 13.507812 -9.179688 14.46875 -8.265625 C 15.425781 -7.359375 15.90625 -6.363281 15.90625 -5.28125 C 15.90625 -4.207031 15.695312 -3.328125 15.28125 -2.640625 C 14.863281 -1.953125 14.316406 -1.425781 13.640625 -1.0625 C 12.328125 -0.351562 10.84375 0 9.1875 0 L 1.671875 0 L 1.671875 -0.296875 L 2.03125 -0.296875 C 2.53125 -0.296875 2.953125 -0.453125 3.296875 -0.765625 C 3.640625 -1.078125 3.820312 -1.46875 3.84375 -1.9375 L 3.84375 -16.234375 C 3.820312 -16.898438 3.519531 -17.375 2.9375 -17.65625 C 2.675781 -17.800781 2.375 -17.875 2.03125 -17.875 L 1.671875 -17.875 L 1.671875 -18.171875 L 7.84375 -18.171875 C 10.851562 -18.171875 12.800781 -17.332031 13.6875 -15.65625 Z M 13.75 -5.09375 C 13.75 -8.101562 11.398438 -9.609375 6.703125 -9.609375 L 6.703125 -9.90625 C 10.253906 -9.90625 12.03125 -11.148438 12.03125 -13.640625 C 12.03125 -16.054688 10.625 -17.265625 7.8125 -17.265625 L 5.75 -17.265625 L 5.75 -0.90625 L 9.15625 -0.90625 C 10.519531 -0.90625 11.625 -1.253906 12.46875 -1.953125 C 13.320312 -2.648438 13.75 -3.695312 13.75 -5.09375 Z M 13.75 -5.09375 "/></g></g></g><g fill="#2e2a27" fill-opacity="1"><g transform="translate(63.837616, 30.913027)"><g><path d="M 20 -0.296875 L 20.234375 -0.296875 L 20.234375 0 L 14.03125 0 L 14.03125 -0.296875 L 14.265625 -0.296875 C 14.648438 -0.296875 14.941406 -0.425781 15.140625 -0.6875 C 15.347656 -0.957031 15.453125 -1.207031 15.453125 -1.4375 C 15.453125 -1.664062 15.410156 -1.894531 15.328125 -2.125 L 13.65625 -6.15625 L 6 -6.15625 L 4.328125 -2.21875 C 4.234375 -1.945312 4.1875 -1.695312 4.1875 -1.46875 C 4.1875 -1.238281 4.285156 -0.984375 4.484375 -0.703125 C 4.679688 -0.429688 4.984375 -0.296875 5.390625 -0.296875 L 5.640625 -0.296875 L 5.640625 0 L -0.15625 0 L -0.15625 -0.296875 L 0.09375 -0.296875 C 0.519531 -0.296875 0.945312 -0.441406 1.375 -0.734375 C 1.8125 -1.035156 2.171875 -1.476562 2.453125 -2.0625 C 6.878906 -11.507812 9.179688 -16.457031 9.359375 -16.90625 C 9.703125 -17.75 9.882812 -18.316406 9.90625 -18.609375 L 10.1875 -18.609375 L 17.65625 -2.0625 C 18.25 -0.882812 19.03125 -0.296875 20 -0.296875 Z M 6.390625 -7.0625 L 13.296875 -7.0625 L 9.90625 -15.359375 Z M 6.390625 -7.0625 "/></g></g></g><g fill="#2e2a27" fill-opacity="1"><g transform="translate(86.950586, 30.913027)"><g/></g></g><g fill="#2e2a27" fill-opacity="1"><g transform="translate(97.55368, 30.913027)"><g><path d="M 13.6875 -15.6875 C 13.6875 -16.375 13.394531 -16.851562 12.8125 -17.125 C 12.613281 -17.195312 12.398438 -17.234375 12.171875 -17.234375 L 5.78125 -17.234375 L 5.78125 -9.546875 L 11.0625 -9.546875 C 11.46875 -9.546875 11.769531 -9.664062 11.96875 -9.90625 C 12.164062 -10.144531 12.265625 -10.445312 12.265625 -10.8125 L 12.265625 -11.203125 L 12.640625 -11.203125 L 12.640625 -6.96875 L 12.265625 -6.96875 L 12.265625 -7.359375 C 12.265625 -7.847656 12.101562 -8.203125 11.78125 -8.421875 C 11.601562 -8.546875 11.382812 -8.617188 11.125 -8.640625 L 5.78125 -8.640625 L 5.78125 -1.9375 C 5.800781 -1.394531 6.046875 -0.953125 6.515625 -0.609375 C 6.816406 -0.398438 7.171875 -0.296875 7.578125 -0.296875 L 8 -0.296875 L 8 0 L 1.671875 0 L 1.671875 -0.296875 L 2.09375 -0.296875 C 2.570312 -0.296875 2.984375 -0.453125 3.328125 -0.765625 C 3.671875 -1.078125 3.851562 -1.457031 3.875 -1.90625 L 3.875 -16.296875 C 3.851562 -16.921875 3.5625 -17.375 3 -17.65625 C 2.71875 -17.800781 2.414062 -17.875 2.09375 -17.875 L 1.671875 -17.875 L 1.671875 -18.171875 L 10.609375 -18.171875 C 11.191406 -18.171875 11.835938 -18.222656 12.546875 -18.328125 C 13.253906 -18.429688 13.75 -18.539062 14.03125 -18.65625 L 14.03125 -15.203125 L 13.6875 -15.234375 Z M 13.6875 -15.6875 "/></g></g></g><g fill="#2e2a27" fill-opacity="1"><g transform="translate(116.426011, 30.913027)"><g><path d="M 2.09375 -0.296875 C 2.632812 -0.296875 3.109375 -0.457031 3.515625 -0.78125 C 3.921875 -1.101562 4.125 -1.488281 4.125 -1.9375 L 4.125 -16.234375 C 4.125 -16.679688 3.921875 -17.066406 3.515625 -17.390625 C 3.109375 -17.710938 2.625 -17.875 2.0625 -17.875 L 1.671875 -17.875 L 1.671875 -18.171875 L 8.515625 -18.171875 L 8.515625 -17.875 L 8.125 -17.875 C 7.570312 -17.875 7.097656 -17.722656 6.703125 -17.421875 C 6.316406 -17.117188 6.101562 -16.742188 6.0625 -16.296875 L 6.0625 -1.90625 C 6.082031 -1.457031 6.289062 -1.078125 6.6875 -0.765625 C 7.09375 -0.453125 7.570312 -0.296875 8.125 -0.296875 L 8.515625 -0.296875 L 8.546875 0 L 1.671875 0 L 1.671875 -0.296875 Z M 2.09375 -0.296875 "/></g></g></g><g fill="#2e2a27" fill-opacity="1"><g transform="translate(129.634066, 30.913027)"><g><path d="M 2.09375 -0.296875 C 2.570312 -0.296875 2.976562 -0.453125 3.3125 -0.765625 C 3.644531 -1.078125 3.820312 -1.457031 3.84375 -1.90625 L 3.84375 -16.234375 C 3.820312 -16.679688 3.632812 -17.066406 3.28125 -17.390625 C 2.925781 -17.710938 2.507812 -17.875 2.03125 -17.875 L 1.671875 -17.875 L 1.671875 -18.171875 L 7.9375 -18.171875 L 7.9375 -17.875 L 7.578125 -17.875 C 7.085938 -17.875 6.664062 -17.710938 6.3125 -17.390625 C 5.957031 -17.066406 5.78125 -16.679688 5.78125 -16.234375 L 5.78125 -0.9375 L 10.515625 -0.9375 C 11.441406 -0.9375 12.226562 -1.097656 12.875 -1.421875 C 13.519531 -1.742188 14.007812 -2.125 14.34375 -2.5625 C 14.675781 -3.007812 15.003906 -3.597656 15.328125 -4.328125 L 15.640625 -4.328125 L 13.96875 0 L 1.671875 0 L 1.671875 -0.296875 Z M 2.09375 -0.296875 "/></g></g></g><g fill="#2e2a27" fill-opacity="1"><g transform="translate(148.900176, 30.913027)"><g><path d="M 25.9375 -0.296875 L 26.390625 -0.296875 L 26.390625 0 L 20.09375 0 L 20.09375 -0.265625 L 20.546875 -0.265625 C 20.847656 -0.265625 21.113281 -0.378906 21.34375 -0.609375 C 21.570312 -0.847656 21.664062 -1.128906 21.625 -1.453125 L 20.0625 -13.9375 L 14.328125 -2.671875 C 13.765625 -1.429688 13.410156 -0.398438 13.265625 0.421875 L 12.96875 0.421875 L 5.671875 -13.65625 L 4.296875 -1.453125 C 4.253906 -1.148438 4.347656 -0.875 4.578125 -0.625 C 4.816406 -0.382812 5.097656 -0.265625 5.421875 -0.265625 L 5.84375 -0.265625 L 5.84375 0 L 0.25 0 L 0.25 -0.296875 L 0.703125 -0.296875 C 1.421875 -0.296875 1.984375 -0.5625 2.390625 -1.09375 C 2.597656 -1.351562 2.71875 -1.664062 2.75 -2.03125 L 5.125 -18.609375 L 5.421875 -18.609375 L 13.421875 -3.21875 L 21.140625 -18.609375 L 21.421875 -18.609375 L 23.875 -1.96875 C 23.957031 -1.46875 24.1875 -1.0625 24.5625 -0.75 C 24.945312 -0.445312 25.40625 -0.296875 25.9375 -0.296875 Z M 25.9375 -0.296875 "/></g></g></g><g fill="#2e2a27" fill-opacity="1"><g transform="translate(178.525554, 30.913027)"><g><path d="M 1.75 -1 C 1.695312 -1.238281 1.671875 -1.734375 1.671875 -2.484375 C 1.671875 -3.234375 1.800781 -3.988281 2.0625 -4.75 L 2.421875 -4.75 C 2.398438 -4.570312 2.390625 -4.394531 2.390625 -4.21875 C 2.390625 -3.125 2.75 -2.226562 3.46875 -1.53125 C 4.1875 -0.832031 5.179688 -0.484375 6.453125 -0.484375 C 7.785156 -0.484375 8.820312 -0.789062 9.5625 -1.40625 C 10.3125 -2.019531 10.6875 -2.816406 10.6875 -3.796875 C 10.6875 -4.773438 10.328125 -5.585938 9.609375 -6.234375 L 3.546875 -10.90625 C 2.578125 -11.738281 2.09375 -12.847656 2.09375 -14.234375 C 2.09375 -15.023438 2.304688 -15.753906 2.734375 -16.421875 C 3.171875 -17.085938 3.773438 -17.617188 4.546875 -18.015625 C 5.328125 -18.410156 6.242188 -18.609375 7.296875 -18.609375 C 8.347656 -18.609375 9.28125 -18.515625 10.09375 -18.328125 L 11.09375 -18.328125 L 11.15625 -15.03125 L 10.8125 -15.03125 C 10.8125 -15.875 10.519531 -16.523438 9.9375 -16.984375 C 9.351562 -17.453125 8.515625 -17.6875 7.421875 -17.6875 C 6.328125 -17.6875 5.425781 -17.410156 4.71875 -16.859375 C 4.019531 -16.304688 3.671875 -15.585938 3.671875 -14.703125 C 3.671875 -13.828125 4.0625 -13.066406 4.84375 -12.421875 L 10.96875 -7.703125 C 11.894531 -6.929688 12.359375 -5.859375 12.359375 -4.484375 C 12.359375 -3.109375 11.835938 -1.945312 10.796875 -1 C 9.753906 -0.0507812 8.488281 0.421875 7 0.421875 C 6.007812 0.421875 5.019531 0.300781 4.03125 0.0625 C 3.039062 -0.175781 2.28125 -0.53125 1.75 -1 Z M 1.75 -1 "/></g></g></g></g></g><g fill="#2e2a27" fill-opacity="1"><g transform="translate(146.911283, 209.515256)"><g><path d="M 1.125 0 L 1.125 -7.703125 L 5.796875 -7.703125 L 5.796875 -6.796875 L 2.09375 -6.796875 L 2.09375 -4.359375 L 5.515625 -4.359375 L 5.515625 -3.46875 L 2.09375 -3.46875 L 2.09375 -0.90625 L 5.921875 -0.90625 L 5.921875 0 Z M 1.125 0 "/></g></g></g><g fill="#2e2a27" fill-opacity="1"><g transform="translate(159.600651, 209.515256)"><g><path d="M 3.6875 0.140625 C 3.070312 0.140625 2.535156 0.0351562 2.078125 -0.171875 C 1.628906 -0.378906 1.28125 -0.671875 1.03125 -1.046875 C 0.789062 -1.421875 0.664062 -1.859375 0.65625 -2.359375 L 1.625 -2.359375 C 1.644531 -1.867188 1.84375 -1.484375 2.21875 -1.203125 C 2.59375 -0.921875 3.082031 -0.78125 3.6875 -0.78125 C 4.226562 -0.78125 4.65625 -0.882812 4.96875 -1.09375 C 5.289062 -1.3125 5.453125 -1.609375 5.453125 -1.984375 C 5.453125 -2.347656 5.296875 -2.632812 4.984375 -2.84375 C 4.679688 -3.0625 4.179688 -3.253906 3.484375 -3.421875 C 2.535156 -3.648438 1.84375 -3.941406 1.40625 -4.296875 C 0.96875 -4.648438 0.75 -5.125 0.75 -5.71875 C 0.75 -6.375 0.992188 -6.890625 1.484375 -7.265625 C 1.984375 -7.648438 2.65625 -7.84375 3.5 -7.84375 C 4.363281 -7.84375 5.046875 -7.625 5.546875 -7.1875 C 6.046875 -6.757812 6.300781 -6.171875 6.3125 -5.421875 L 5.359375 -5.421875 C 5.347656 -5.878906 5.175781 -6.242188 4.84375 -6.515625 C 4.507812 -6.785156 4.0625 -6.921875 3.5 -6.921875 C 2.945312 -6.921875 2.515625 -6.8125 2.203125 -6.59375 C 1.890625 -6.375 1.734375 -6.082031 1.734375 -5.71875 C 1.734375 -5.40625 1.878906 -5.140625 2.171875 -4.921875 C 2.460938 -4.703125 2.984375 -4.503906 3.734375 -4.328125 C 4.710938 -4.078125 5.410156 -3.769531 5.828125 -3.40625 C 6.242188 -3.050781 6.453125 -2.59375 6.453125 -2.03125 C 6.453125 -1.351562 6.203125 -0.820312 5.703125 -0.4375 C 5.203125 -0.0507812 4.53125 0.140625 3.6875 0.140625 Z M 3.6875 0.140625 "/></g></g></g><g fill="#2e2a27" fill-opacity="1"><g transform="translate(172.773681, 209.515256)"><g><path d="M 2.984375 0 L 2.984375 -6.78125 L 0.375 -6.78125 L 0.375 -7.703125 L 6.546875 -7.703125 L 6.546875 -6.78125 L 3.953125 -6.78125 L 3.953125 0 Z M 2.984375 0 "/></g></g></g><g fill="#2e2a27" fill-opacity="1"><g transform="translate(185.75984, 209.515256)"><g><path d="M 1.40625 0.09375 C 1.1875 0.09375 1.007812 0.0234375 0.875 -0.109375 C 0.738281 -0.253906 0.671875 -0.429688 0.671875 -0.640625 C 0.671875 -0.847656 0.738281 -1.019531 0.875 -1.15625 C 1.007812 -1.289062 1.1875 -1.359375 1.40625 -1.359375 C 1.632812 -1.359375 1.816406 -1.289062 1.953125 -1.15625 C 2.085938 -1.019531 2.15625 -0.847656 2.15625 -0.640625 C 2.15625 -0.429688 2.085938 -0.253906 1.953125 -0.109375 C 1.816406 0.0234375 1.632812 0.09375 1.40625 0.09375 Z M 1.40625 0.09375 "/></g></g></g><g fill="#2e2a27" fill-opacity="1"><g transform="translate(194.645902, 209.515256)"><g><path d="M 0.796875 0 L 0.796875 -0.71875 L 3.984375 -3.65625 C 4.347656 -4 4.617188 -4.316406 4.796875 -4.609375 C 4.972656 -4.910156 5.0625 -5.21875 5.0625 -5.53125 C 5.0625 -5.96875 4.910156 -6.320312 4.609375 -6.59375 C 4.316406 -6.863281 3.929688 -7 3.453125 -7 C 2.960938 -7 2.5625 -6.847656 2.25 -6.546875 C 1.945312 -6.253906 1.789062 -5.835938 1.78125 -5.296875 L 0.875 -5.296875 C 0.894531 -5.816406 1.007812 -6.265625 1.21875 -6.640625 C 1.4375 -7.023438 1.734375 -7.320312 2.109375 -7.53125 C 2.492188 -7.738281 2.9375 -7.84375 3.4375 -7.84375 C 3.9375 -7.84375 4.375 -7.742188 4.75 -7.546875 C 5.132812 -7.347656 5.4375 -7.078125 5.65625 -6.734375 C 5.882812 -6.390625 6 -5.988281 6 -5.53125 C 6 -5.101562 5.882812 -4.671875 5.65625 -4.234375 C 5.425781 -3.804688 5.070312 -3.367188 4.59375 -2.921875 L 2.375 -0.90625 L 6.15625 -0.90625 L 6.15625 0 Z M 0.796875 0 "/></g></g></g><g fill="#2e2a27" fill-opacity="1"><g transform="translate(207.75298, 209.515256)"><g><path d="M 3.84375 0.140625 C 3.207031 0.140625 2.65625 -0.0195312 2.1875 -0.34375 C 1.726562 -0.664062 1.367188 -1.125 1.109375 -1.71875 C 0.859375 -2.320312 0.734375 -3.03125 0.734375 -3.84375 C 0.734375 -4.664062 0.859375 -5.375 1.109375 -5.96875 C 1.367188 -6.570312 1.726562 -7.035156 2.1875 -7.359375 C 2.65625 -7.679688 3.207031 -7.84375 3.84375 -7.84375 C 4.488281 -7.84375 5.039062 -7.679688 5.5 -7.359375 C 5.96875 -7.035156 6.328125 -6.570312 6.578125 -5.96875 C 6.828125 -5.375 6.953125 -4.664062 6.953125 -3.84375 C 6.953125 -3.03125 6.828125 -2.320312 6.578125 -1.71875 C 6.328125 -1.125 5.96875 -0.664062 5.5 -0.34375 C 5.039062 -0.0195312 4.488281 0.140625 3.84375 0.140625 Z M 1.6875 -3.84375 C 1.6875 -2.90625 1.878906 -2.160156 2.265625 -1.609375 C 2.648438 -1.066406 3.175781 -0.796875 3.84375 -0.796875 C 4.507812 -0.796875 5.035156 -1.066406 5.421875 -1.609375 C 5.804688 -2.160156 6 -2.90625 6 -3.84375 C 6 -4.789062 5.804688 -5.535156 5.421875 -6.078125 C 5.035156 -6.628906 4.507812 -6.90625 3.84375 -6.90625 C 3.175781 -6.90625 2.648438 -6.628906 2.265625 -6.078125 C 1.878906 -5.535156 1.6875 -4.789062 1.6875 -3.84375 Z M 1.6875 -3.84375 "/></g></g></g><g fill="#2e2a27" fill-opacity="1"><g transform="translate(221.497597, 209.515256)"><g><path d="M 2.171875 0 L 2.171875 -5.5625 L 0.40625 -5.5625 L 0.40625 -6.453125 L 1.25 -6.453125 C 1.59375 -6.453125 1.832031 -6.5 1.96875 -6.59375 C 2.101562 -6.695312 2.203125 -6.878906 2.265625 -7.140625 L 2.390625 -7.703125 L 3.140625 -7.703125 L 3.140625 0 Z M 2.171875 0 "/></g></g></g><g fill="#2e2a27" fill-opacity="1"><g transform="translate(231.823635, 209.515256)"><g><path d="M 3.328125 0.140625 C 2.828125 0.140625 2.382812 0.046875 2 -0.140625 C 1.613281 -0.335938 1.3125 -0.613281 1.09375 -0.96875 C 0.875 -1.320312 0.75 -1.738281 0.71875 -2.21875 L 1.671875 -2.21875 C 1.703125 -1.78125 1.867188 -1.429688 2.171875 -1.171875 C 2.472656 -0.921875 2.863281 -0.796875 3.34375 -0.796875 C 3.851562 -0.796875 4.253906 -0.9375 4.546875 -1.21875 C 4.847656 -1.5 5 -1.867188 5 -2.328125 C 5 -2.796875 4.847656 -3.164062 4.546875 -3.4375 C 4.242188 -3.71875 3.84375 -3.859375 3.34375 -3.859375 L 0.921875 -3.859375 L 1.21875 -7.703125 L 5.625 -7.703125 L 5.625 -6.796875 L 2.09375 -6.796875 L 1.9375 -4.75 L 3.34375 -4.75 C 3.875 -4.75 4.332031 -4.644531 4.71875 -4.4375 C 5.113281 -4.238281 5.421875 -3.953125 5.640625 -3.578125 C 5.859375 -3.210938 5.96875 -2.789062 5.96875 -2.3125 C 5.96875 -1.820312 5.859375 -1.390625 5.640625 -1.015625 C 5.421875 -0.648438 5.113281 -0.363281 4.71875 -0.15625 C 4.320312 0.0390625 3.859375 0.140625 3.328125 0.140625 Z M 3.328125 0.140625 "/></g></g></g></svg>