<svg xmlns="http://www.w3.org/2000/svg" xmlns:xlink="http://www.w3.org/1999/xlink" width="1080" zoomAndPan="magnify" viewBox="0 0 810 809.999993" height="1080" preserveAspectRatio="xMidYMid meet" version="1.0"><defs><g/><clipPath id="bd8790597a"><path d="M 0.0390625 11 L 35 11 L 35 51 L 0.0390625 51 Z M 0.0390625 11 " clip-rule="nonzero"/></clipPath><clipPath id="8c6f11683b"><rect x="0" width="349" y="0" height="67"/></clipPath></defs><g transform="matrix(1, 0, 0, 1, 215, 161)"><g clip-path="url(#8c6f11683b)"><g clip-path="url(#bd8790597a)"><g fill="#685554" fill-opacity="1"><g transform="translate(1.050829, 50.466544)"><g><path d="M 33.25 -39.296875 C 32.863281 -39.222656 32.25 -38.804688 31.40625 -38.046875 C 30.570312 -37.285156 29.566406 -35.875 28.390625 -33.8125 L 18.515625 -16.859375 L 18.515625 -5.3125 C 18.515625 -3.375 18.78125 -2.019531 19.3125 -1.25 C 19.84375 -0.488281 20.335938 -0.0703125 20.796875 0 L 12.109375 0 C 12.566406 -0.0703125 13.0625 -0.476562 13.59375 -1.21875 C 14.125 -1.96875 14.390625 -3.332031 14.390625 -5.3125 L 14.390625 -16.90625 L 4.625 -33.875 C 3.476562 -35.851562 2.488281 -37.210938 1.65625 -37.953125 C 0.820312 -38.703125 0.15625 -39.148438 -0.34375 -39.296875 L 9.25 -39.296875 C 8.300781 -39.109375 7.828125 -38.5 7.828125 -37.46875 C 7.828125 -37.125 7.941406 -36.710938 8.171875 -36.234375 C 8.398438 -35.765625 8.757812 -35.09375 9.25 -34.21875 L 17.53125 -19.65625 L 25.828125 -33.984375 C 26.472656 -35.054688 26.796875 -36.144531 26.796875 -37.25 C 26.796875 -37.96875 26.578125 -38.46875 26.140625 -38.75 C 25.703125 -39.039062 25.269531 -39.222656 24.84375 -39.296875 Z M 33.25 -39.296875 "/></g></g></g></g><g fill="#685554" fill-opacity="1"><g transform="translate(33.039483, 50.466544)"><g><path d="M 3.65625 -19.1875 C 3.65625 -23.226562 4.519531 -26.828125 6.25 -29.984375 C 7.988281 -33.148438 10.425781 -35.609375 13.5625 -37.359375 C 16.707031 -39.109375 20.335938 -39.984375 24.453125 -39.984375 C 27.878906 -39.984375 31.085938 -39.226562 34.078125 -37.71875 C 37.066406 -36.21875 39.460938 -33.960938 41.265625 -30.953125 C 43.078125 -27.953125 43.984375 -24.335938 43.984375 -20.109375 C 43.984375 -16.066406 43.113281 -12.460938 41.375 -9.296875 C 39.644531 -6.140625 37.207031 -3.6875 34.0625 -1.9375 C 30.925781 -0.1875 27.300781 0.6875 23.1875 0.6875 C 19.757812 0.6875 16.550781 -0.0625 13.5625 -1.5625 C 10.570312 -3.070312 8.171875 -5.332031 6.359375 -8.34375 C 4.554688 -11.351562 3.65625 -14.96875 3.65625 -19.1875 Z M 39.421875 -19.25 C 39.421875 -22.71875 38.703125 -25.847656 37.265625 -28.640625 C 35.835938 -31.441406 33.878906 -33.632812 31.390625 -35.21875 C 28.898438 -36.800781 26.09375 -37.59375 22.96875 -37.59375 C 20.113281 -37.59375 17.570312 -36.867188 15.34375 -35.421875 C 13.113281 -33.972656 11.367188 -31.925781 10.109375 -29.28125 C 8.847656 -26.632812 8.21875 -23.554688 8.21875 -20.046875 C 8.21875 -16.585938 8.929688 -13.457031 10.359375 -10.65625 C 11.796875 -7.851562 13.757812 -5.660156 16.25 -4.078125 C 18.75 -2.503906 21.554688 -1.71875 24.671875 -1.71875 C 27.535156 -1.71875 30.078125 -2.441406 32.296875 -3.890625 C 34.523438 -5.335938 36.269531 -7.382812 37.53125 -10.03125 C 38.789062 -12.675781 39.421875 -15.75 39.421875 -19.25 Z M 39.421875 -19.25 "/></g></g></g><g fill="#685554" fill-opacity="1"><g transform="translate(79.760183, 50.466544)"><g><path d="M 35.296875 -13.65625 C 35.296875 -10.644531 34.722656 -8.0625 33.578125 -5.90625 C 32.441406 -3.757812 30.835938 -2.125 28.765625 -1 C 26.691406 0.125 24.28125 0.6875 21.53125 0.6875 C 17 0.6875 13.492188 -0.566406 11.015625 -3.078125 C 8.546875 -5.597656 7.3125 -9.082031 7.3125 -13.53125 L 7.3125 -33.984375 C 7.3125 -35.515625 7.128906 -36.664062 6.765625 -37.4375 C 6.410156 -38.21875 6.007812 -38.742188 5.5625 -39.015625 C 5.125 -39.285156 4.90625 -39.378906 4.90625 -39.296875 L 13.828125 -39.296875 C 13.828125 -39.378906 13.609375 -39.285156 13.171875 -39.015625 C 12.734375 -38.742188 12.332031 -38.226562 11.96875 -37.46875 C 11.601562 -36.707031 11.421875 -35.601562 11.421875 -34.15625 L 11.421875 -13.53125 C 11.421875 -9.84375 12.304688 -6.988281 14.078125 -4.96875 C 15.847656 -2.945312 18.445312 -1.9375 21.875 -1.9375 C 25.039062 -1.9375 27.535156 -2.898438 29.359375 -4.828125 C 31.191406 -6.753906 32.109375 -9.601562 32.109375 -13.375 L 32.109375 -33.984375 C 32.109375 -35.515625 31.914062 -36.664062 31.53125 -37.4375 C 31.15625 -38.21875 30.738281 -38.742188 30.28125 -39.015625 C 29.820312 -39.285156 29.59375 -39.378906 29.59375 -39.296875 L 37.8125 -39.296875 C 37.8125 -39.378906 37.582031 -39.285156 37.125 -39.015625 C 36.675781 -38.742188 36.257812 -38.21875 35.875 -37.4375 C 35.488281 -36.664062 35.296875 -35.515625 35.296875 -33.984375 Z M 35.296875 -13.65625 "/></g></g></g><g fill="#685554" fill-opacity="1"><g transform="translate(120.426603, 50.466544)"><g><path d="M 16.34375 -19.765625 C 18.09375 -19.765625 19.613281 -20.171875 20.90625 -20.984375 C 22.195312 -21.804688 23.175781 -22.875 23.84375 -24.1875 C 24.507812 -25.5 24.84375 -26.878906 24.84375 -28.328125 C 24.84375 -29.816406 24.53125 -31.21875 23.90625 -32.53125 C 23.28125 -33.84375 22.316406 -34.914062 21.015625 -35.75 C 19.722656 -36.59375 18.144531 -37.015625 16.28125 -37.015625 L 11.421875 -37.015625 L 11.421875 -5.25 C 11.421875 -3.726562 11.609375 -2.578125 11.984375 -1.796875 C 12.367188 -1.015625 12.789062 -0.5 13.25 -0.25 C 13.707031 -0.0078125 13.9375 0.0703125 13.9375 0 L 4.859375 0 C 4.859375 0.0703125 5.085938 -0.0195312 5.546875 -0.28125 C 6.003906 -0.550781 6.410156 -1.066406 6.765625 -1.828125 C 7.128906 -2.585938 7.3125 -3.726562 7.3125 -5.25 L 7.3125 -33.8125 C 7.3125 -35.375 7.128906 -36.5625 6.765625 -37.375 C 6.410156 -38.195312 6.003906 -38.75 5.546875 -39.03125 C 5.085938 -39.320312 4.859375 -39.410156 4.859375 -39.296875 L 16.171875 -39.296875 C 19.140625 -39.296875 21.582031 -38.8125 23.5 -37.84375 C 25.425781 -36.875 26.816406 -35.617188 27.671875 -34.078125 C 28.535156 -32.535156 28.96875 -30.847656 28.96875 -29.015625 C 28.96875 -27.492188 28.601562 -26 27.875 -24.53125 C 27.15625 -23.0625 26.117188 -21.785156 24.765625 -20.703125 C 23.410156 -19.617188 21.835938 -18.867188 20.046875 -18.453125 L 19.140625 -18.28125 L 29.1875 -5.484375 C 30.519531 -3.992188 31.625 -2.847656 32.5 -2.046875 C 33.375 -1.253906 34.007812 -0.722656 34.40625 -0.453125 C 34.8125 -0.191406 35.050781 -0.0390625 35.125 0 L 28.453125 0 L 12.90625 -19.765625 Z M 16.34375 -19.765625 "/></g></g></g><g fill="#685554" fill-opacity="1"><g transform="translate(155.838382, 50.466544)"><g/></g></g><g fill="#685554" fill-opacity="1"><g transform="translate(170.460018, 50.466544)"><g><path d="M 15.25 0.6875 C 13.269531 0.6875 11.363281 0.410156 9.53125 -0.140625 C 7.707031 -0.691406 6.070312 -1.460938 4.625 -2.453125 L 4.625 -9.375 C 5.613281 -6.820312 7.125 -4.882812 9.15625 -3.5625 C 11.195312 -2.25 13.320312 -1.59375 15.53125 -1.59375 C 17.738281 -1.59375 19.585938 -2.328125 21.078125 -3.796875 C 22.566406 -5.265625 23.3125 -7.082031 23.3125 -9.25 C 23.3125 -10.695312 23.015625 -11.9375 22.421875 -12.96875 C 21.828125 -14 20.882812 -14.957031 19.59375 -15.84375 C 18.300781 -16.738281 16.472656 -17.738281 14.109375 -18.84375 C 10.796875 -20.375 8.382812 -21.96875 6.875 -23.625 C 5.375 -25.28125 4.625 -27.285156 4.625 -29.640625 C 4.625 -31.660156 5.109375 -33.460938 6.078125 -35.046875 C 7.054688 -36.628906 8.375 -37.847656 10.03125 -38.703125 C 11.6875 -39.554688 13.503906 -39.984375 15.484375 -39.984375 C 17.191406 -39.984375 18.863281 -39.742188 20.5 -39.265625 C 22.144531 -38.796875 23.671875 -38.125 25.078125 -37.25 L 25.078125 -31.078125 C 24.160156 -33.171875 22.78125 -34.796875 20.9375 -35.953125 C 19.09375 -37.117188 17.21875 -37.703125 15.3125 -37.703125 C 13.132812 -37.703125 11.378906 -36.992188 10.046875 -35.578125 C 8.710938 -34.171875 8.046875 -32.5 8.046875 -30.5625 C 8.046875 -29.15625 8.445312 -27.945312 9.25 -26.9375 C 10.050781 -25.925781 11.03125 -25.078125 12.1875 -24.390625 C 13.351562 -23.703125 14.984375 -22.863281 17.078125 -21.875 C 19.210938 -20.851562 20.960938 -19.898438 22.328125 -19.015625 C 23.703125 -18.140625 24.847656 -17 25.765625 -15.59375 C 26.679688 -14.1875 27.140625 -12.472656 27.140625 -10.453125 C 27.140625 -8.171875 26.59375 -6.191406 25.5 -4.515625 C 24.414062 -2.835938 22.96875 -1.550781 21.15625 -0.65625 C 19.351562 0.238281 17.382812 0.6875 15.25 0.6875 Z M 15.25 0.6875 "/></g></g></g><g fill="#685554" fill-opacity="1"><g transform="translate(200.617145, 50.466544)"><g><path d="M 8.453125 -37.015625 C 6.773438 -37.015625 5.382812 -36.691406 4.28125 -36.046875 C 3.175781 -35.398438 2.378906 -34.582031 1.890625 -33.59375 L 2.6875 -39.296875 L 29.765625 -39.296875 L 30.5625 -33.59375 C 30.0625 -34.582031 29.257812 -35.398438 28.15625 -36.046875 C 27.050781 -36.691406 25.664062 -37.015625 24 -37.015625 L 18.28125 -37.015625 L 18.28125 -5.3125 C 18.28125 -3.789062 18.46875 -2.628906 18.84375 -1.828125 C 19.226562 -1.023438 19.648438 -0.488281 20.109375 -0.21875 C 20.566406 0.0390625 20.796875 0.113281 20.796875 0 L 11.703125 0 C 11.703125 0.113281 11.929688 0.0390625 12.390625 -0.21875 C 12.847656 -0.488281 13.257812 -1.015625 13.625 -1.796875 C 13.988281 -2.578125 14.171875 -3.75 14.171875 -5.3125 L 14.171875 -37.015625 Z M 8.453125 -37.015625 "/></g></g></g><g fill="#685554" fill-opacity="1"><g transform="translate(232.14506, 50.466544)"><g><path d="M 3.65625 -19.1875 C 3.65625 -23.226562 4.519531 -26.828125 6.25 -29.984375 C 7.988281 -33.148438 10.425781 -35.609375 13.5625 -37.359375 C 16.707031 -39.109375 20.335938 -39.984375 24.453125 -39.984375 C 27.878906 -39.984375 31.085938 -39.226562 34.078125 -37.71875 C 37.066406 -36.21875 39.460938 -33.960938 41.265625 -30.953125 C 43.078125 -27.953125 43.984375 -24.335938 43.984375 -20.109375 C 43.984375 -16.066406 43.113281 -12.460938 41.375 -9.296875 C 39.644531 -6.140625 37.207031 -3.6875 34.0625 -1.9375 C 30.925781 -0.1875 27.300781 0.6875 23.1875 0.6875 C 19.757812 0.6875 16.550781 -0.0625 13.5625 -1.5625 C 10.570312 -3.070312 8.171875 -5.332031 6.359375 -8.34375 C 4.554688 -11.351562 3.65625 -14.96875 3.65625 -19.1875 Z M 39.421875 -19.25 C 39.421875 -22.71875 38.703125 -25.847656 37.265625 -28.640625 C 35.835938 -31.441406 33.878906 -33.632812 31.390625 -35.21875 C 28.898438 -36.800781 26.09375 -37.59375 22.96875 -37.59375 C 20.113281 -37.59375 17.570312 -36.867188 15.34375 -35.421875 C 13.113281 -33.972656 11.367188 -31.925781 10.109375 -29.28125 C 8.847656 -26.632812 8.21875 -23.554688 8.21875 -20.046875 C 8.21875 -16.585938 8.929688 -13.457031 10.359375 -10.65625 C 11.796875 -7.851562 13.757812 -5.660156 16.25 -4.078125 C 18.75 -2.503906 21.554688 -1.71875 24.671875 -1.71875 C 27.535156 -1.71875 30.078125 -2.441406 32.296875 -3.890625 C 34.523438 -5.335938 36.269531 -7.382812 37.53125 -10.03125 C 38.789062 -12.675781 39.421875 -15.75 39.421875 -19.25 Z M 39.421875 -19.25 "/></g></g></g><g fill="#685554" fill-opacity="1"><g transform="translate(278.865737, 50.466544)"><g><path d="M 16.34375 -19.765625 C 18.09375 -19.765625 19.613281 -20.171875 20.90625 -20.984375 C 22.195312 -21.804688 23.175781 -22.875 23.84375 -24.1875 C 24.507812 -25.5 24.84375 -26.878906 24.84375 -28.328125 C 24.84375 -29.816406 24.53125 -31.21875 23.90625 -32.53125 C 23.28125 -33.84375 22.316406 -34.914062 21.015625 -35.75 C 19.722656 -36.59375 18.144531 -37.015625 16.28125 -37.015625 L 11.421875 -37.015625 L 11.421875 -5.25 C 11.421875 -3.726562 11.609375 -2.578125 11.984375 -1.796875 C 12.367188 -1.015625 12.789062 -0.5 13.25 -0.25 C 13.707031 -0.0078125 13.9375 0.0703125 13.9375 0 L 4.859375 0 C 4.859375 0.0703125 5.085938 -0.0195312 5.546875 -0.28125 C 6.003906 -0.550781 6.410156 -1.066406 6.765625 -1.828125 C 7.128906 -2.585938 7.3125 -3.726562 7.3125 -5.25 L 7.3125 -33.8125 C 7.3125 -35.375 7.128906 -36.5625 6.765625 -37.375 C 6.410156 -38.195312 6.003906 -38.75 5.546875 -39.03125 C 5.085938 -39.320312 4.859375 -39.410156 4.859375 -39.296875 L 16.171875 -39.296875 C 19.140625 -39.296875 21.582031 -38.8125 23.5 -37.84375 C 25.425781 -36.875 26.816406 -35.617188 27.671875 -34.078125 C 28.535156 -32.535156 28.96875 -30.847656 28.96875 -29.015625 C 28.96875 -27.492188 28.601562 -26 27.875 -24.53125 C 27.15625 -23.0625 26.117188 -21.785156 24.765625 -20.703125 C 23.410156 -19.617188 21.835938 -18.867188 20.046875 -18.453125 L 19.140625 -18.28125 L 29.1875 -5.484375 C 30.519531 -3.992188 31.625 -2.847656 32.5 -2.046875 C 33.375 -1.253906 34.007812 -0.722656 34.40625 -0.453125 C 34.8125 -0.191406 35.050781 -0.0390625 35.125 0 L 28.453125 0 L 12.90625 -19.765625 Z M 16.34375 -19.765625 "/></g></g></g><g fill="#685554" fill-opacity="1"><g transform="translate(314.277528, 50.466544)"><g><path d="M 33.25 -39.296875 C 32.863281 -39.222656 32.25 -38.804688 31.40625 -38.046875 C 30.570312 -37.285156 29.566406 -35.875 28.390625 -33.8125 L 18.515625 -16.859375 L 18.515625 -5.3125 C 18.515625 -3.375 18.78125 -2.019531 19.3125 -1.25 C 19.84375 -0.488281 20.335938 -0.0703125 20.796875 0 L 12.109375 0 C 12.566406 -0.0703125 13.0625 -0.476562 13.59375 -1.21875 C 14.125 -1.96875 14.390625 -3.332031 14.390625 -5.3125 L 14.390625 -16.90625 L 4.625 -33.875 C 3.476562 -35.851562 2.488281 -37.210938 1.65625 -37.953125 C 0.820312 -38.703125 0.15625 -39.148438 -0.34375 -39.296875 L 9.25 -39.296875 C 8.300781 -39.109375 7.828125 -38.5 7.828125 -37.46875 C 7.828125 -37.125 7.941406 -36.710938 8.171875 -36.234375 C 8.398438 -35.765625 8.757812 -35.09375 9.25 -34.21875 L 17.53125 -19.65625 L 25.828125 -33.984375 C 26.472656 -35.054688 26.796875 -36.144531 26.796875 -37.25 C 26.796875 -37.96875 26.578125 -38.46875 26.140625 -38.75 C 25.703125 -39.039062 25.269531 -39.222656 24.84375 -39.296875 Z M 33.25 -39.296875 "/></g></g></g></g></g></svg>