<svg xmlns="http://www.w3.org/2000/svg" xmlns:xlink="http://www.w3.org/1999/xlink" width="1080" zoomAndPan="magnify" viewBox="0 0 810 809.999993" height="1080" preserveAspectRatio="xMidYMid meet" version="1.0"><defs><g/></defs><g fill="#685554" fill-opacity="1"><g transform="translate(179.953749, 175.488131)"><g><path d="M 8.671875 -0.078125 L 8.671875 -28.765625 C 8.671875 -29.585938 8.765625 -30.644531 8.953125 -31.9375 C 9.148438 -33.226562 9.484375 -34.550781 9.953125 -35.90625 C 10.421875 -37.257812 11.015625 -38.539062 11.734375 -39.75 C 12.453125 -40.957031 13.332031 -41.921875 14.375 -42.640625 L 8.1875 -42.640625 C 7.6875 -42.640625 7.144531 -42.707031 6.5625 -42.84375 C 5.988281 -42.988281 5.484375 -43.222656 5.046875 -43.546875 C 5.484375 -44.929688 5.878906 -46.144531 6.234375 -47.1875 C 6.597656 -48.238281 7 -49.394531 7.4375 -50.65625 L 7.765625 -50.65625 L 8.421875 -46.9375 L 35.453125 -46.9375 C 36.722656 -46.9375 37.9375 -46.71875 39.09375 -46.28125 C 40.25 -45.84375 41.253906 -45.222656 42.109375 -44.421875 C 42.960938 -43.617188 43.648438 -42.648438 44.171875 -41.515625 C 44.691406 -40.390625 44.953125 -39.140625 44.953125 -37.765625 L 44.953125 -12.96875 C 44.953125 -11.039062 44.785156 -9.054688 44.453125 -7.015625 C 44.128906 -4.984375 43.414062 -2.617188 42.3125 0.078125 Z M 13.640625 -12.890625 C 13.640625 -12.285156 13.640625 -11.71875 13.640625 -11.1875 C 13.640625 -10.664062 13.609375 -10.070312 13.546875 -9.40625 C 13.492188 -8.75 13.410156 -8.019531 13.296875 -7.21875 C 13.191406 -6.425781 13.054688 -5.476562 12.890625 -4.375 L 39.921875 -4.21875 L 39.921875 -36.4375 C 39.921875 -37.101562 39.820312 -37.789062 39.625 -38.5 C 39.4375 -39.21875 39.117188 -39.878906 38.671875 -40.484375 C 38.234375 -41.097656 37.671875 -41.609375 36.984375 -42.015625 C 36.296875 -42.429688 35.484375 -42.640625 34.546875 -42.640625 L 20 -42.640625 C 19.445312 -42.640625 18.796875 -42.363281 18.046875 -41.8125 C 17.304688 -41.257812 16.601562 -40.570312 15.9375 -39.75 C 15.28125 -38.925781 14.734375 -38.003906 14.296875 -36.984375 C 13.859375 -35.960938 13.640625 -34.984375 13.640625 -34.046875 Z M 13.640625 -12.890625 "/></g></g></g><g fill="#685554" fill-opacity="1"><g transform="translate(228.629085, 175.488131)"><g><path d="M 5.046875 -4.375 L 20.90625 -4.375 C 22.894531 -4.375 24.476562 -4.71875 25.65625 -5.40625 C 26.84375 -6.101562 27.753906 -7.039062 28.390625 -8.21875 C 29.023438 -9.40625 29.4375 -10.78125 29.625 -12.34375 C 29.820312 -13.914062 29.921875 -15.585938 29.921875 -17.359375 L 29.921875 -42.640625 L 7.9375 -42.640625 C 7.4375 -42.640625 6.894531 -42.707031 6.3125 -42.84375 C 5.738281 -42.988281 5.234375 -43.222656 4.796875 -43.546875 C 5.234375 -44.929688 5.628906 -46.144531 5.984375 -47.1875 C 6.347656 -48.238281 6.75 -49.394531 7.1875 -50.65625 L 7.515625 -50.65625 L 8.1875 -46.9375 L 34.875 -46.9375 L 34.875 -16.9375 C 34.875 -15.125 34.765625 -13.222656 34.546875 -11.234375 C 34.328125 -9.253906 33.675781 -7.4375 32.59375 -5.78125 C 31.519531 -4.132812 29.828125 -2.769531 27.515625 -1.6875 C 25.203125 -0.613281 21.953125 -0.078125 17.765625 -0.078125 L 4.125 -0.078125 Z M 5.046875 -4.375 "/></g></g></g><g fill="#685554" fill-opacity="1"><g transform="translate(267.883394, 175.488131)"><g><path d="M 3.71875 -57.9375 L 0.5 -60.984375 C 1.707031 -62.640625 2.804688 -64.097656 3.796875 -65.359375 C 4.785156 -66.628906 5.863281 -68.066406 7.03125 -69.671875 L 7.6875 -69.671875 L 7.03125 -46.9375 L 34.296875 -46.9375 L 34.296875 -30.328125 C 34.296875 -27.898438 34.101562 -25.253906 33.71875 -22.390625 C 33.332031 -19.523438 32.519531 -16.6875 31.28125 -13.875 C 30.039062 -11.070312 28.273438 -8.390625 25.984375 -5.828125 C 23.703125 -3.265625 20.632812 -1.070312 16.78125 0.75 L 15.703125 -1.328125 C 18.617188 -3.859375 20.972656 -6.222656 22.765625 -8.421875 C 24.554688 -10.628906 25.945312 -12.695312 26.9375 -14.625 C 27.925781 -16.550781 28.570312 -18.378906 28.875 -20.109375 C 29.1875 -21.847656 29.34375 -23.492188 29.34375 -25.046875 L 29.25 -42.640625 L 4.125 -42.640625 Z M 3.71875 -57.9375 "/></g></g></g><g fill="#685554" fill-opacity="1"><g transform="translate(306.311291, 175.488131)"><g><path d="M 59.34375 -30.828125 C 59.34375 -28.679688 59.269531 -26.4375 59.125 -24.09375 C 58.988281 -21.75 58.660156 -19.429688 58.140625 -17.140625 C 57.617188 -14.859375 56.875 -12.679688 55.90625 -10.609375 C 54.9375 -8.546875 53.640625 -6.742188 52.015625 -5.203125 C 50.390625 -3.660156 48.363281 -2.421875 45.9375 -1.484375 C 43.519531 -0.546875 40.628906 -0.078125 37.265625 -0.078125 L 12.96875 -0.078125 C 12.476562 -6.359375 12.023438 -12.53125 11.609375 -18.59375 C 11.191406 -24.65625 10.738281 -30.828125 10.25 -37.109375 L 10.328125 -42.640625 L 5.78125 -42.640625 C 5.289062 -42.640625 4.753906 -42.707031 4.171875 -42.84375 C 3.597656 -42.988281 3.085938 -43.222656 2.640625 -43.546875 C 3.085938 -44.929688 3.503906 -46.144531 3.890625 -47.1875 C 4.273438 -48.238281 4.660156 -49.394531 5.046875 -50.65625 L 5.453125 -50.65625 L 6.03125 -46.9375 L 14.703125 -46.9375 L 17.109375 -4.375 L 37.84375 -4.375 C 41.320312 -4.375 44.117188 -4.96875 46.234375 -6.15625 C 48.359375 -7.34375 50.023438 -8.984375 51.234375 -11.078125 C 52.453125 -13.171875 53.265625 -15.609375 53.671875 -18.390625 C 54.085938 -21.171875 54.296875 -24.1875 54.296875 -27.4375 L 54.296875 -42.640625 L 49.578125 -42.640625 C 49.085938 -42.640625 48.550781 -42.707031 47.96875 -42.84375 C 47.394531 -42.988281 46.882812 -43.222656 46.4375 -43.546875 C 46.882812 -44.929688 47.300781 -46.144531 47.6875 -47.1875 C 48.070312 -48.238281 48.484375 -49.394531 48.921875 -50.65625 L 49.25 -50.65625 L 49.828125 -46.9375 L 59.34375 -46.9375 Z M 34.375 -15.78125 C 34.101562 -15.726562 33.785156 -15.6875 33.421875 -15.65625 C 33.066406 -15.632812 32.671875 -15.625 32.234375 -15.625 L 32.390625 -42.640625 L 27.6875 -42.640625 C 27.1875 -42.640625 26.644531 -42.707031 26.0625 -42.84375 C 25.488281 -42.988281 24.984375 -43.222656 24.546875 -43.546875 C 24.984375 -44.929688 25.394531 -46.144531 25.78125 -47.1875 C 26.164062 -48.238281 26.582031 -49.394531 27.03125 -50.65625 L 27.359375 -50.65625 L 27.9375 -46.9375 L 37.265625 -46.9375 C 37.210938 -45.445312 37.144531 -44.054688 37.0625 -42.765625 C 36.976562 -41.472656 36.910156 -40.207031 36.859375 -38.96875 C 36.804688 -37.726562 36.738281 -36.472656 36.65625 -35.203125 C 36.570312 -33.929688 36.5 -32.554688 36.4375 -31.078125 Z M 34.375 -15.78125 "/></g></g></g><g fill="#685554" fill-opacity="1"><g transform="translate(368.622342, 175.488131)"><g/></g></g><g fill="#685554" fill-opacity="1"><g transform="translate(390.108921, 175.488131)"><g><path d="M 33.640625 -12.96875 C 33.640625 -11.039062 33.472656 -9.054688 33.140625 -7.015625 C 32.804688 -4.984375 32.085938 -2.617188 30.984375 0.078125 C 30.597656 0.078125 30.171875 0.09375 29.703125 0.125 C 29.234375 0.15625 28.863281 0.171875 28.59375 0.171875 L 28.59375 -36.4375 C 28.59375 -37.101562 28.492188 -37.789062 28.296875 -38.5 C 28.109375 -39.21875 27.789062 -39.878906 27.34375 -40.484375 C 26.90625 -41.097656 26.34375 -41.609375 25.65625 -42.015625 C 24.96875 -42.429688 24.15625 -42.640625 23.21875 -42.640625 L 5.703125 -42.640625 C 5.265625 -42.640625 4.738281 -42.707031 4.125 -42.84375 C 3.519531 -42.988281 3.023438 -43.222656 2.640625 -43.546875 C 3.085938 -44.929688 3.488281 -46.144531 3.84375 -47.1875 C 4.195312 -48.238281 4.597656 -49.394531 5.046875 -50.65625 L 5.375 -50.65625 L 6.03125 -46.9375 L 24.125 -46.9375 C 25.394531 -46.9375 26.609375 -46.71875 27.765625 -46.28125 C 28.921875 -45.84375 29.925781 -45.222656 30.78125 -44.421875 C 31.632812 -43.617188 32.320312 -42.648438 32.84375 -41.515625 C 33.375 -40.390625 33.640625 -39.140625 33.640625 -37.765625 Z M 33.640625 -12.96875 "/></g></g></g><g fill="#685554" fill-opacity="1"><g transform="translate(428.040956, 175.488131)"><g><path d="M 6.6875 -42.640625 C 6.25 -42.640625 5.726562 -42.707031 5.125 -42.84375 C 4.519531 -42.988281 4.023438 -43.222656 3.640625 -43.546875 C 4.078125 -44.929688 4.472656 -46.144531 4.828125 -47.1875 C 5.191406 -48.238281 5.59375 -49.394531 6.03125 -50.65625 L 6.359375 -50.65625 L 7.03125 -46.9375 L 17.9375 -46.9375 L 17.9375 -12.96875 C 17.9375 -11.039062 17.785156 -9.054688 17.484375 -7.015625 C 17.179688 -4.984375 16.476562 -2.617188 15.375 0.078125 C 14.925781 0.078125 14.484375 0.09375 14.046875 0.125 C 13.609375 0.15625 13.25 0.171875 12.96875 0.171875 L 12.96875 -42.640625 Z M 6.6875 -42.640625 "/></g></g></g><g fill="#685554" fill-opacity="1"><g transform="translate(451.428284, 175.488131)"><g><path d="M 20.328125 -21.8125 L 6.78125 -21.8125 L 7.4375 -29.671875 C 7.488281 -30.109375 7.515625 -30.613281 7.515625 -31.1875 C 7.515625 -31.769531 7.515625 -32.335938 7.515625 -32.890625 C 7.515625 -34.160156 7.429688 -35.46875 7.265625 -36.8125 C 7.109375 -38.164062 6.722656 -39.253906 6.109375 -40.078125 L 4.546875 -42.3125 C 5.316406 -43.90625 6.046875 -45.304688 6.734375 -46.515625 C 7.421875 -47.734375 8.148438 -49.113281 8.921875 -50.65625 L 10.984375 -46.9375 L 42.234375 -46.9375 L 41.984375 -18.671875 C 41.984375 -16.859375 41.875 -14.863281 41.65625 -12.6875 C 41.4375 -10.507812 40.785156 -8.5 39.703125 -6.65625 C 38.628906 -4.8125 36.9375 -3.253906 34.625 -1.984375 C 32.3125 -0.710938 29.0625 -0.078125 24.875 -0.078125 L 5.78125 -0.078125 C 6 -1.128906 6.175781 -1.914062 6.3125 -2.4375 C 6.457031 -2.957031 6.582031 -3.601562 6.6875 -4.375 L 28.1875 -4.375 C 30.164062 -4.375 31.742188 -4.71875 32.921875 -5.40625 C 34.109375 -6.101562 35.019531 -7.039062 35.65625 -8.21875 C 36.289062 -9.40625 36.703125 -10.78125 36.890625 -12.34375 C 37.085938 -13.914062 37.1875 -15.585938 37.1875 -17.359375 L 37.015625 -42.640625 L 11.328125 -42.640625 L 10.75 -39.75 L 10.75 -26.203125 C 12.070312 -26.085938 13.640625 -25.929688 15.453125 -25.734375 C 17.273438 -25.546875 18.984375 -25.394531 20.578125 -25.28125 Z M 20.328125 -21.8125 "/></g></g></g><g fill="#685554" fill-opacity="1"><g transform="translate(497.624395, 175.488131)"><g><path d="M 21.078125 -42.140625 C 21.078125 -39.609375 20.910156 -37.347656 20.578125 -35.359375 C 20.242188 -33.378906 19.691406 -31.5625 18.921875 -29.90625 C 18.148438 -28.257812 17.101562 -26.71875 15.78125 -25.28125 C 14.457031 -23.851562 12.78125 -22.394531 10.75 -20.90625 L 9.921875 -22.0625 C 12.117188 -24.207031 13.601562 -26.65625 14.375 -29.40625 C 15.144531 -32.164062 15.53125 -34.894531 15.53125 -37.59375 C 15.53125 -37.988281 15.503906 -38.648438 15.453125 -39.578125 C 15.398438 -40.515625 15.316406 -41.535156 15.203125 -42.640625 L 7.359375 -42.640625 C 6.859375 -42.640625 6.265625 -42.722656 5.578125 -42.890625 C 4.890625 -43.054688 4.296875 -43.273438 3.796875 -43.546875 C 4.242188 -44.816406 4.703125 -46.039062 5.171875 -47.21875 C 5.640625 -48.40625 6.066406 -49.550781 6.453125 -50.65625 L 7.1875 -50.65625 L 7.765625 -46.9375 L 21.15625 -46.9375 Z M 21.078125 -42.140625 "/></g></g></g><g fill="#685554" fill-opacity="1"><g transform="translate(523.573574, 175.488131)"><g><path d="M 44.953125 -30.828125 C 44.953125 -28.734375 44.867188 -26.539062 44.703125 -24.25 C 44.535156 -21.96875 44.191406 -19.722656 43.671875 -17.515625 C 43.148438 -15.316406 42.421875 -13.210938 41.484375 -11.203125 C 40.546875 -9.191406 39.273438 -7.398438 37.671875 -5.828125 C 36.078125 -4.253906 34.109375 -2.984375 31.765625 -2.015625 C 29.429688 -1.054688 26.640625 -0.492188 23.390625 -0.328125 L 10.5 -0.171875 L 7.515625 -37.015625 C 7.023438 -37.847656 6.472656 -38.691406 5.859375 -39.546875 C 5.253906 -40.398438 4.675781 -41.265625 4.125 -42.140625 C 4.894531 -43.742188 5.625 -45.175781 6.3125 -46.4375 C 7.007812 -47.707031 7.742188 -49.113281 8.515625 -50.65625 L 9.171875 -50.65625 L 11.5625 -46.9375 L 44.953125 -46.9375 Z M 11.5625 -42.640625 L 10.90625 -39.5 L 14.21875 -4.375 L 23.640625 -4.375 C 27.109375 -4.375 29.914062 -4.96875 32.0625 -6.15625 C 34.207031 -7.34375 35.882812 -8.984375 37.09375 -11.078125 C 38.3125 -13.171875 39.140625 -15.609375 39.578125 -18.390625 C 40.023438 -21.171875 40.25 -24.1875 40.25 -27.4375 L 40.25 -42.640625 Z M 11.5625 -42.640625 "/></g></g></g><g fill="#685554" fill-opacity="1"><g transform="translate(572.331537, 175.488131)"><g><path d="M 5.453125 -14.296875 C 5.453125 -16.222656 5.617188 -18.21875 5.953125 -20.28125 C 6.285156 -22.351562 7 -24.738281 8.09375 -27.4375 C 8.476562 -27.4375 8.90625 -27.445312 9.375 -27.46875 C 9.84375 -27.5 10.21875 -27.515625 10.5 -27.515625 L 10.5 -13.3125 C 10.5 -11.375 10.332031 -9.375 10 -7.3125 C 9.664062 -5.25 8.945312 -2.867188 7.84375 -0.171875 C 7.457031 -0.171875 7.03125 -0.15625 6.5625 -0.125 C 6.101562 -0.09375 5.734375 -0.078125 5.453125 -0.078125 Z M 39.828125 -12.96875 C 39.828125 -11.039062 39.675781 -9.054688 39.375 -7.015625 C 39.070312 -4.984375 38.367188 -2.617188 37.265625 0.078125 C 36.828125 0.078125 36.382812 0.09375 35.9375 0.125 C 35.5 0.15625 35.144531 0.171875 34.875 0.171875 L 34.875 -36.4375 C 34.875 -37.101562 34.773438 -37.789062 34.578125 -38.5 C 34.390625 -39.21875 34.070312 -39.878906 33.625 -40.484375 C 33.1875 -41.097656 32.625 -41.609375 31.9375 -42.015625 C 31.25 -42.429688 30.410156 -42.640625 29.421875 -42.640625 L 8.265625 -42.640625 C 7.765625 -42.640625 7.222656 -42.707031 6.640625 -42.84375 C 6.066406 -42.988281 5.5625 -43.222656 5.125 -43.546875 C 5.5625 -44.929688 5.957031 -46.144531 6.3125 -47.1875 C 6.675781 -48.238281 7.078125 -49.394531 7.515625 -50.65625 L 7.84375 -50.65625 L 8.515625 -46.9375 L 30.40625 -46.9375 C 31.625 -46.9375 32.8125 -46.71875 33.96875 -46.28125 C 35.125 -45.84375 36.128906 -45.222656 36.984375 -44.421875 C 37.835938 -43.617188 38.523438 -42.648438 39.046875 -41.515625 C 39.566406 -40.390625 39.828125 -39.140625 39.828125 -37.765625 Z M 39.828125 -12.96875 "/></g></g></g></svg>