<?xml version="1.0" encoding="UTF-8" standalone="no"?>
<svg
   width="1080"
   zoomAndPan="magnify"
   viewBox="0 0 810 809.999993"
   height="1080"
   preserveAspectRatio="xMidYMid meet"
   version="1.0"
   id="svg70"
   sodipodi:docname="FONTS2.svg"
   inkscape:version="1.4.2 (f4327f4, 2025-05-13)"
   xmlns:inkscape="http://www.inkscape.org/namespaces/inkscape"
   xmlns:sodipodi="http://sodipodi.sourceforge.net/DTD/sodipodi-0.dtd"
   xmlns="http://www.w3.org/2000/svg"
   xmlns:svg="http://www.w3.org/2000/svg">
  <sodipodi:namedview
     id="namedview70"
     pagecolor="#ffffff"
     bordercolor="#000000"
     borderopacity="0.25"
     inkscape:showpageshadow="2"
     inkscape:pageopacity="0.0"
     inkscape:pagecheckerboard="0"
     inkscape:deskcolor="#d1d1d1"
     inkscape:zoom="1.1231481"
     inkscape:cx="539.55482"
     inkscape:cy="326.31492"
     inkscape:window-width="2560"
     inkscape:window-height="1494"
     inkscape:window-x="2869"
     inkscape:window-y="207"
     inkscape:window-maximized="1"
     inkscape:current-layer="svg70" />
  <defs
     id="defs1">
    <g
       id="g1" />
  </defs>
  <rect
     x="-81"
     width="972"
     fill="#ffffff"
     y="-80.999999"
     height="971.999992"
     fill-opacity="1"
     id="rect1" />
  <rect
     x="-81"
     width="972"
     fill="#ffffff"
     y="-80.999999"
     height="971.999992"
     fill-opacity="1"
     id="rect2"
     style="fill:#ffffff;fill-opacity:0" />
  <g
     fill="#ffffff"
     fill-opacity="1"
     id="g4">
    <g
       transform="translate(86.480186, 434.59327)"
       id="g3">
      <g
         id="g2">
        <path
           d="M 62.046875 -17.421875 C 62.046875 -14.835938 61.84375 -12.175781 61.4375 -9.4375 C 61.03125 -6.695312 60.085938 -3.515625 58.609375 0.109375 C 58.015625 0.109375 57.421875 0.125 56.828125 0.15625 C 56.234375 0.195312 55.753906 0.21875 55.390625 0.21875 L 55.390625 -48.953125 C 55.390625 -49.835938 55.238281 -50.757812 54.9375 -51.71875 C 54.644531 -52.6875 54.203125 -53.578125 53.609375 -54.390625 C 53.015625 -55.203125 52.253906 -55.882812 51.328125 -56.4375 C 50.410156 -57 49.320312 -57.28125 48.0625 -57.28125 L 28.53125 -57.28125 C 27.71875 -57.28125 26.882812 -56.910156 26.03125 -56.171875 C 25.175781 -55.429688 24.394531 -54.503906 23.6875 -53.390625 C 22.988281 -52.273438 22.414062 -51.035156 21.96875 -49.671875 C 21.53125 -48.304688 21.3125 -46.992188 21.3125 -45.734375 L 21.3125 -17.421875 C 21.3125 -14.835938 21.085938 -12.175781 20.640625 -9.4375 C 20.203125 -6.695312 19.242188 -3.515625 17.765625 0.109375 C 16.285156 0.109375 14.914062 0.0859375 13.65625 0.046875 C 12.394531 0.015625 11.191406 0 10.046875 0 C 8.898438 0 7.710938 -0.015625 6.484375 -0.046875 C 5.265625 -0.0859375 3.953125 -0.109375 2.546875 -0.109375 C 2.773438 -1.367188 2.960938 -2.253906 3.109375 -2.765625 C 3.253906 -3.285156 3.398438 -3.953125 3.546875 -4.765625 L 14.546875 -6.109375 L 14.546875 -38.625 C 14.546875 -39.738281 14.5625 -41.144531 14.59375 -42.84375 C 14.632812 -44.550781 14.820312 -46.289062 15.15625 -48.0625 C 15.488281 -49.84375 16.0625 -51.5625 16.875 -53.21875 C 17.6875 -54.882812 18.832031 -56.238281 20.3125 -57.28125 L 10.328125 -57.28125 C 9.660156 -57.28125 8.9375 -57.367188 8.15625 -57.546875 C 7.382812 -57.734375 6.703125 -58.050781 6.109375 -58.5 C 6.703125 -60.34375 7.238281 -61.96875 7.71875 -63.375 C 8.195312 -64.78125 8.734375 -66.335938 9.328125 -68.046875 L 9.765625 -68.046875 L 10.65625 -63.046875 L 49.390625 -63.046875 C 51.023438 -63.046875 52.617188 -62.75 54.171875 -62.15625 C 55.722656 -61.5625 57.070312 -60.726562 58.21875 -59.65625 C 59.363281 -58.582031 60.285156 -57.285156 60.984375 -55.765625 C 61.691406 -54.253906 62.046875 -52.578125 62.046875 -50.734375 Z M 62.046875 -17.421875 "
           id="path2" />
      </g>
    </g>
  </g>
  <g
     fill="#ffffff"
     fill-opacity="1"
     id="g13">
    <g
       transform="translate(153.413182, 434.59327)"
       id="g6">
      <g
         id="g5">
        <path
           d="M 28.3125 -56.609375 C 28.3125 -53.203125 28.085938 -50.164062 27.640625 -47.5 C 27.191406 -44.84375 26.445312 -42.40625 25.40625 -40.1875 C 24.375 -37.96875 22.96875 -35.894531 21.1875 -33.96875 C 19.414062 -32.039062 17.164062 -30.078125 14.4375 -28.078125 L 13.3125 -29.640625 C 16.28125 -32.523438 18.28125 -35.816406 19.3125 -39.515625 C 20.351562 -43.210938 20.875 -46.875 20.875 -50.5 C 20.875 -51.019531 20.832031 -51.910156 20.75 -53.171875 C 20.675781 -54.429688 20.566406 -55.800781 20.421875 -57.28125 L 9.875 -57.28125 C 9.207031 -57.28125 8.410156 -57.390625 7.484375 -57.609375 C 6.566406 -57.828125 5.773438 -58.125 5.109375 -58.5 C 5.703125 -60.195312 6.3125 -61.84375 6.9375 -63.4375 C 7.5625 -65.03125 8.132812 -66.566406 8.65625 -68.046875 L 9.65625 -68.046875 L 10.4375 -63.046875 L 28.421875 -63.046875 Z M 28.3125 -56.609375 "
           id="path4" />
      </g>
    </g>
    <g
       transform="translate(188.26718, 434.59327)"
       id="g8">
      <g
         id="g7">
        <path
           d="M 52.84375 -5.765625 L 52.84375 -48.953125 C 52.84375 -49.835938 52.710938 -50.757812 52.453125 -51.71875 C 52.191406 -52.6875 51.765625 -53.578125 51.171875 -54.390625 C 50.578125 -55.203125 49.816406 -55.882812 48.890625 -56.4375 C 47.972656 -57 46.847656 -57.28125 45.515625 -57.28125 L 26.078125 -57.28125 C 25.335938 -57.28125 24.46875 -56.910156 23.46875 -56.171875 C 22.476562 -55.429688 21.535156 -54.503906 20.640625 -53.390625 C 19.753906 -52.273438 19.015625 -51.035156 18.421875 -49.671875 C 17.828125 -48.304688 17.53125 -46.992188 17.53125 -45.734375 L 17.53125 -17.421875 C 17.53125 -14.835938 17.328125 -12.175781 16.921875 -9.4375 C 16.515625 -6.695312 15.570312 -3.515625 14.09375 0.109375 C 13.5 0.109375 12.90625 0.0859375 12.3125 0.046875 C 11.726562 0.015625 11.25 0 10.875 0 L 10.875 -38.625 C 10.875 -39.738281 11.019531 -41.164062 11.3125 -42.90625 C 11.613281 -44.644531 12.078125 -46.421875 12.703125 -48.234375 C 13.335938 -50.046875 14.15625 -51.765625 15.15625 -53.390625 C 16.15625 -55.015625 17.359375 -56.3125 18.765625 -57.28125 L 10.09375 -57.28125 C 9.507812 -57.28125 8.804688 -57.367188 7.984375 -57.546875 C 7.171875 -57.734375 6.507812 -58.050781 6 -58.5 C 6.582031 -60.34375 7.113281 -61.96875 7.59375 -63.375 C 8.082031 -64.78125 8.625 -66.335938 9.21875 -68.046875 L 9.65625 -68.046875 L 10.546875 -63.046875 L 46.84375 -63.046875 C 48.46875 -63.046875 50.054688 -62.75 51.609375 -62.15625 C 53.171875 -61.5625 54.523438 -60.726562 55.671875 -59.65625 C 56.816406 -58.582031 57.738281 -57.285156 58.4375 -55.765625 C 59.144531 -54.253906 59.5 -52.578125 59.5 -50.734375 L 59.5 -17.421875 C 59.5 -14.835938 59.296875 -12.175781 58.890625 -9.4375 C 58.484375 -6.695312 57.539062 -3.515625 56.0625 0.109375 C 51.46875 0.109375 47.15625 0.0703125 43.125 0 C 39.09375 -0.0703125 34.816406 -0.109375 30.296875 -0.109375 C 30.597656 -1.367188 30.820312 -2.238281 30.96875 -2.71875 C 31.113281 -3.195312 31.257812 -3.84375 31.40625 -4.65625 Z M 52.84375 -5.765625 "
           id="path6" />
      </g>
    </g>
    <g
       transform="translate(252.869177, 434.59327)"
       id="g10">
      <g
         id="g9">
        <path
           d="M 5 -77.8125 L 0.671875 -81.921875 C 2.296875 -84.140625 3.773438 -86.097656 5.109375 -87.796875 C 6.441406 -89.503906 7.882812 -91.429688 9.4375 -93.578125 L 10.328125 -93.578125 L 9.4375 -63.046875 L 46.0625 -63.046875 L 46.0625 -40.734375 C 46.0625 -37.484375 45.800781 -33.929688 45.28125 -30.078125 C 44.769531 -26.234375 43.679688 -22.421875 42.015625 -18.640625 C 40.347656 -14.867188 37.976562 -11.257812 34.90625 -7.8125 C 31.832031 -4.375 27.707031 -1.4375 22.53125 1 L 21.09375 -1.78125 C 25.007812 -5.175781 28.171875 -8.351562 30.578125 -11.3125 C 32.984375 -14.28125 34.851562 -17.054688 36.1875 -19.640625 C 37.519531 -22.234375 38.390625 -24.695312 38.796875 -27.03125 C 39.203125 -29.363281 39.40625 -31.566406 39.40625 -33.640625 L 39.296875 -57.28125 L 5.546875 -57.28125 Z M 5 -77.8125 "
           id="path8" />
      </g>
    </g>
    <g
       transform="translate(304.484175, 434.59327)"
       id="g12">
      <g
         id="g11">
        <path
           d="M 8.984375 -57.28125 C 8.398438 -57.28125 7.695312 -57.367188 6.875 -57.546875 C 6.0625 -57.734375 5.398438 -58.050781 4.890625 -58.5 C 5.472656 -60.34375 6.003906 -61.96875 6.484375 -63.375 C 6.972656 -64.78125 7.515625 -66.335938 8.109375 -68.046875 L 8.546875 -68.046875 L 9.4375 -63.046875 L 24.09375 -63.046875 L 24.09375 -17.421875 C 24.09375 -14.835938 23.882812 -12.175781 23.46875 -9.4375 C 23.0625 -6.695312 22.117188 -3.515625 20.640625 0.109375 C 20.054688 0.109375 19.46875 0.125 18.875 0.15625 C 18.28125 0.195312 17.796875 0.21875 17.421875 0.21875 L 17.421875 -57.28125 Z M 8.984375 -57.28125 "
           id="path10" />
      </g>
    </g>
  </g>
  <g
     fill="#ffffff"
     fill-opacity="1"
     id="g16">
    <g
       transform="translate(335.897196, 434.59327)"
       id="g15">
      <g
         id="g14">
        <path
           d="M 79.703125 -41.40625 C 79.703125 -38.519531 79.609375 -35.503906 79.421875 -32.359375 C 79.234375 -29.210938 78.785156 -26.101562 78.078125 -23.03125 C 77.378906 -19.957031 76.382812 -17.03125 75.09375 -14.25 C 73.800781 -11.476562 72.0625 -9.054688 69.875 -6.984375 C 67.6875 -4.921875 64.960938 -3.257812 61.703125 -2 C 58.453125 -0.738281 54.570312 -0.109375 50.0625 -0.109375 L 17.421875 -0.109375 C 16.753906 -8.546875 16.144531 -16.832031 15.59375 -24.96875 C 15.039062 -33.113281 14.429688 -41.40625 13.765625 -49.84375 L 13.875 -57.28125 L 7.765625 -57.28125 C 7.097656 -57.28125 6.375 -57.367188 5.59375 -57.546875 C 4.820312 -57.734375 4.140625 -58.050781 3.546875 -58.5 C 4.140625 -60.34375 4.695312 -61.96875 5.21875 -63.375 C 5.738281 -64.78125 6.253906 -66.335938 6.765625 -68.046875 L 7.328125 -68.046875 L 8.109375 -63.046875 L 19.765625 -63.046875 L 22.984375 -5.890625 L 50.84375 -5.890625 C 55.5 -5.890625 59.25 -6.679688 62.09375 -8.265625 C 64.945312 -9.859375 67.1875 -12.0625 68.8125 -14.875 C 70.445312 -17.6875 71.539062 -20.957031 72.09375 -24.6875 C 72.644531 -28.425781 72.921875 -32.484375 72.921875 -36.859375 L 72.921875 -57.28125 L 66.59375 -57.28125 C 65.925781 -57.28125 65.203125 -57.367188 64.421875 -57.546875 C 63.648438 -57.734375 62.96875 -58.050781 62.375 -58.5 C 62.96875 -60.34375 63.523438 -61.96875 64.046875 -63.375 C 64.566406 -64.78125 65.125 -66.335938 65.71875 -68.046875 L 66.15625 -68.046875 L 66.9375 -63.046875 L 79.703125 -63.046875 Z M 46.171875 -21.203125 C 45.804688 -21.128906 45.378906 -21.070312 44.890625 -21.03125 C 44.410156 -21 43.878906 -20.984375 43.296875 -20.984375 L 43.515625 -57.28125 L 37.1875 -57.28125 C 36.519531 -57.28125 35.796875 -57.367188 35.015625 -57.546875 C 34.242188 -57.734375 33.5625 -58.050781 32.96875 -58.5 C 33.5625 -60.34375 34.113281 -61.96875 34.625 -63.375 C 35.144531 -64.78125 35.703125 -66.335938 36.296875 -68.046875 L 36.734375 -68.046875 L 37.515625 -63.046875 L 50.0625 -63.046875 C 49.988281 -61.046875 49.894531 -59.175781 49.78125 -57.4375 C 49.664062 -55.695312 49.570312 -53.992188 49.5 -52.328125 C 49.425781 -50.671875 49.332031 -48.988281 49.21875 -47.28125 C 49.113281 -45.582031 49.023438 -43.734375 48.953125 -41.734375 Z M 46.171875 -21.203125 "
           id="path13" />
      </g>
    </g>
  </g>
  <g
     fill="#ffffff"
     fill-opacity="1"
     id="g19">
    <g
       transform="translate(419.591176, 434.59327)"
       id="g18">
      <g
         id="g17" />
    </g>
  </g>
  <g
     fill="#ffffff"
     fill-opacity="1"
     id="g22">
    <g
       transform="translate(448.45116, 434.59327)"
       id="g21">
      <g
         id="g20">
        <path
           d="M 6.109375 15.546875 L 6.109375 -82.25 L 14.546875 -84.6875 L 14.546875 13.09375 Z M 6.109375 15.546875 "
           id="path19" />
      </g>
    </g>
  </g>
  <g
     fill="#ffffff"
     fill-opacity="1"
     id="g25">
    <g
       transform="translate(469.09717, 434.59327)"
       id="g24">
      <g
         id="g23" />
    </g>
  </g>
  <g
     fill="#ffffff"
     fill-opacity="1"
     id="g28">
    <g
       transform="translate(497.957154, 434.59327)"
       id="g27">
      <g
         id="g26">
        <path
           d="M 57.828125 -44.171875 C 57.828125 -40.847656 57.566406 -37.257812 57.046875 -33.40625 C 56.535156 -29.5625 55.460938 -25.75 53.828125 -21.96875 C 52.203125 -18.195312 49.851562 -14.609375 46.78125 -11.203125 C 43.71875 -7.804688 39.59375 -4.882812 34.40625 -2.4375 L 32.859375 -5.109375 C 36.773438 -8.515625 39.9375 -11.695312 42.34375 -14.65625 C 44.75 -17.613281 46.617188 -20.40625 47.953125 -23.03125 C 49.285156 -25.65625 50.171875 -28.113281 50.609375 -30.40625 C 51.054688 -32.707031 51.28125 -34.894531 51.28125 -36.96875 L 51.171875 -57.28125 L 15.65625 -57.28125 L 15.65625 2 C 15.65625 4.59375 15.453125 7.273438 15.046875 10.046875 C 14.640625 12.816406 13.691406 16.015625 12.203125 19.640625 C 11.617188 19.640625 11.140625 19.640625 10.765625 19.640625 C 10.398438 19.640625 9.992188 19.679688 9.546875 19.765625 L 9.546875 -48.953125 C 9.546875 -50.429688 9.25 -51.722656 8.65625 -52.828125 C 8.0625 -53.941406 7.359375 -55.054688 6.546875 -56.171875 C 6.546875 -56.316406 6.507812 -56.40625 6.4375 -56.4375 C 6.363281 -56.476562 6.328125 -56.535156 6.328125 -56.609375 C 7.359375 -58.753906 8.335938 -60.675781 9.265625 -62.375 C 10.191406 -64.082031 11.171875 -65.972656 12.203125 -68.046875 L 14.984375 -63.046875 L 58.046875 -63.046875 Z M 57.828125 -44.171875 "
           id="path25" />
      </g>
    </g>
  </g>
  <g
     fill="#ffffff"
     fill-opacity="1"
     id="g31">
    <g
       transform="translate(561.227139, 434.59327)"
       id="g30">
      <g
         id="g29">
        <path
           d="M 60.390625 -17.421875 C 60.390625 -14.835938 60.164062 -12.175781 59.71875 -9.4375 C 59.269531 -6.695312 58.304688 -3.515625 56.828125 0.109375 C 56.316406 0.109375 55.742188 0.125 55.109375 0.15625 C 54.484375 0.195312 53.984375 0.21875 53.609375 0.21875 L 53.609375 -48.953125 C 53.609375 -49.835938 53.476562 -50.757812 53.21875 -51.71875 C 52.96875 -52.6875 52.546875 -53.578125 51.953125 -54.390625 C 51.359375 -55.203125 50.597656 -55.882812 49.671875 -56.4375 C 48.742188 -57 47.648438 -57.28125 46.390625 -57.28125 L 26.859375 -57.28125 C 26.117188 -57.28125 25.25 -56.910156 24.25 -56.171875 C 23.25 -55.429688 22.304688 -54.503906 21.421875 -53.390625 C 20.535156 -52.273438 19.796875 -51.035156 19.203125 -49.671875 C 18.609375 -48.304688 18.3125 -46.992188 18.3125 -45.734375 L 18.3125 -17.421875 C 18.3125 -14.835938 18.109375 -12.175781 17.703125 -9.4375 C 17.296875 -6.695312 16.351562 -3.515625 14.875 0.109375 C 14.28125 0.109375 13.6875 0.0859375 13.09375 0.046875 C 12.5 0.015625 12.019531 0 11.65625 0 L 11.65625 -38.625 C 11.65625 -39.738281 11.820312 -41.164062 12.15625 -42.90625 C 12.488281 -44.644531 13.003906 -46.421875 13.703125 -48.234375 C 14.410156 -50.046875 15.28125 -51.765625 16.3125 -53.390625 C 17.351562 -55.015625 18.578125 -56.3125 19.984375 -57.28125 L 10.984375 -57.28125 C 10.316406 -57.28125 9.59375 -57.367188 8.8125 -57.546875 C 8.039062 -57.734375 7.359375 -58.050781 6.765625 -58.5 C 7.359375 -60.34375 7.894531 -61.96875 8.375 -63.375 C 8.863281 -64.78125 9.398438 -66.335938 9.984375 -68.046875 L 10.4375 -68.046875 L 11.328125 -63.046875 L 47.625 -63.046875 C 49.320312 -63.046875 50.945312 -62.75 52.5 -62.15625 C 54.050781 -61.5625 55.398438 -60.726562 56.546875 -59.65625 C 57.703125 -58.582031 58.628906 -57.285156 59.328125 -55.765625 C 60.035156 -54.253906 60.390625 -52.578125 60.390625 -50.734375 Z M 60.390625 -17.421875 "
           id="path28" />
      </g>
    </g>
  </g>
  <g
     fill="#ffffff"
     fill-opacity="1"
     id="g34">
    <g
       transform="translate(626.606134, 434.59327)"
       id="g33">
      <g
         id="g32">
        <path
           d="M 42.1875 -20.53125 L 56.71875 -6.328125 C 56.195312 -5.066406 55.75 -4.007812 55.375 -3.15625 C 55.007812 -2.3125 54.570312 -1.296875 54.0625 -0.109375 L 8.21875 -0.109375 C 8.4375 -1.515625 8.640625 -2.566406 8.828125 -3.265625 C 9.015625 -3.972656 9.179688 -4.847656 9.328125 -5.890625 L 49.953125 -5.890625 L 21.75 -32.96875 L 16.875 -57.28125 L 8.4375 -57.28125 C 7.769531 -57.28125 7.046875 -57.367188 6.265625 -57.546875 C 5.492188 -57.734375 4.8125 -58.050781 4.21875 -58.5 L 7.4375 -68.046875 L 7.875 -68.046875 L 8.765625 -63.046875 C 10.472656 -63.046875 12.488281 -63.023438 14.8125 -62.984375 C 17.144531 -62.953125 19.3125 -62.9375 21.3125 -62.9375 L 28.859375 -34.1875 L 39.953125 -22.640625 C 40.035156 -24.640625 40.164062 -26.472656 40.34375 -28.140625 C 40.53125 -29.804688 40.625 -30.785156 40.625 -31.078125 C 40.625 -34.703125 40.84375 -38.347656 41.28125 -42.015625 C 41.726562 -45.679688 42.140625 -48.992188 42.515625 -51.953125 C 42.660156 -53.429688 42.804688 -54.796875 42.953125 -56.046875 C 43.097656 -57.304688 43.210938 -58.382812 43.296875 -59.28125 L 45.40625 -66.15625 L 46.0625 -66.15625 L 49.0625 -61.15625 L 58.609375 -61.15625 C 58.460938 -59.820312 58.40625 -58.785156 58.4375 -58.046875 C 58.476562 -57.304688 58.460938 -56.421875 58.390625 -55.390625 L 52.609375 -55.390625 C 51.796875 -54.867188 51.148438 -54.421875 50.671875 -54.046875 C 50.191406 -53.679688 49.800781 -53.332031 49.5 -53 C 49.207031 -52.664062 49.003906 -52.273438 48.890625 -51.828125 C 48.785156 -51.390625 48.65625 -50.875 48.5 -50.28125 L 47.734375 -47.734375 L 47.734375 -47.84375 Z M 42.1875 -20.53125 "
           id="path31" />
      </g>
    </g>
  </g>
  <g
     fill="#ffffff"
     fill-opacity="1"
     id="g37">
    <g
       transform="translate(688.655173, 434.59327)"
       id="g36">
      <g
         id="g35">
        <path
           d="M 28.3125 -56.609375 C 28.3125 -53.203125 28.085938 -50.164062 27.640625 -47.5 C 27.191406 -44.84375 26.445312 -42.40625 25.40625 -40.1875 C 24.375 -37.96875 22.96875 -35.894531 21.1875 -33.96875 C 19.414062 -32.039062 17.164062 -30.078125 14.4375 -28.078125 L 13.3125 -29.640625 C 16.28125 -32.523438 18.28125 -35.816406 19.3125 -39.515625 C 20.351562 -43.210938 20.875 -46.875 20.875 -50.5 C 20.875 -51.019531 20.832031 -51.910156 20.75 -53.171875 C 20.675781 -54.429688 20.566406 -55.800781 20.421875 -57.28125 L 9.875 -57.28125 C 9.207031 -57.28125 8.410156 -57.390625 7.484375 -57.609375 C 6.566406 -57.828125 5.773438 -58.125 5.109375 -58.5 C 5.703125 -60.195312 6.3125 -61.84375 6.9375 -63.4375 C 7.5625 -65.03125 8.132812 -66.566406 8.65625 -68.046875 L 9.65625 -68.046875 L 10.4375 -63.046875 L 28.421875 -63.046875 Z M 28.3125 -56.609375 "
           id="path34" />
      </g>
    </g>
  </g>
  <g
     fill="#5c4a49"
     fill-opacity="1"
     id="g40">
    <g
       transform="translate(179.953749, 175.488131)"
       id="g39">
      <g
         id="g38">
        <path
           d="M 8.671875 -0.078125 L 8.671875 -28.765625 C 8.671875 -29.585938 8.765625 -30.644531 8.953125 -31.9375 C 9.148438 -33.226562 9.484375 -34.550781 9.953125 -35.90625 C 10.421875 -37.257812 11.015625 -38.539062 11.734375 -39.75 C 12.453125 -40.957031 13.332031 -41.921875 14.375 -42.640625 L 8.1875 -42.640625 C 7.6875 -42.640625 7.144531 -42.707031 6.5625 -42.84375 C 5.988281 -42.988281 5.484375 -43.222656 5.046875 -43.546875 C 5.484375 -44.929688 5.878906 -46.144531 6.234375 -47.1875 C 6.597656 -48.238281 7 -49.394531 7.4375 -50.65625 L 7.765625 -50.65625 L 8.421875 -46.9375 L 35.453125 -46.9375 C 36.722656 -46.9375 37.9375 -46.71875 39.09375 -46.28125 C 40.25 -45.84375 41.253906 -45.222656 42.109375 -44.421875 C 42.960938 -43.617188 43.648438 -42.648438 44.171875 -41.515625 C 44.691406 -40.390625 44.953125 -39.140625 44.953125 -37.765625 L 44.953125 -12.96875 C 44.953125 -11.039062 44.785156 -9.054688 44.453125 -7.015625 C 44.128906 -4.984375 43.414062 -2.617188 42.3125 0.078125 Z M 13.640625 -12.890625 C 13.640625 -12.285156 13.640625 -11.71875 13.640625 -11.1875 C 13.640625 -10.664062 13.609375 -10.070312 13.546875 -9.40625 C 13.492188 -8.75 13.410156 -8.019531 13.296875 -7.21875 C 13.191406 -6.425781 13.054688 -5.476562 12.890625 -4.375 L 39.921875 -4.21875 L 39.921875 -36.4375 C 39.921875 -37.101562 39.820312 -37.789062 39.625 -38.5 C 39.4375 -39.21875 39.117188 -39.878906 38.671875 -40.484375 C 38.234375 -41.097656 37.671875 -41.609375 36.984375 -42.015625 C 36.296875 -42.429688 35.484375 -42.640625 34.546875 -42.640625 L 20 -42.640625 C 19.445312 -42.640625 18.796875 -42.363281 18.046875 -41.8125 C 17.304688 -41.257812 16.601562 -40.570312 15.9375 -39.75 C 15.28125 -38.925781 14.734375 -38.003906 14.296875 -36.984375 C 13.859375 -35.960938 13.640625 -34.984375 13.640625 -34.046875 Z M 13.640625 -12.890625 "
           id="path37" />
      </g>
    </g>
  </g>
  <g
     fill="#5c4a49"
     fill-opacity="1"
     id="g43">
    <g
       transform="translate(228.629085, 175.488131)"
       id="g42">
      <g
         id="g41">
        <path
           d="M 5.046875 -4.375 L 20.90625 -4.375 C 22.894531 -4.375 24.476562 -4.71875 25.65625 -5.40625 C 26.84375 -6.101562 27.753906 -7.039062 28.390625 -8.21875 C 29.023438 -9.40625 29.4375 -10.78125 29.625 -12.34375 C 29.820312 -13.914062 29.921875 -15.585938 29.921875 -17.359375 L 29.921875 -42.640625 L 7.9375 -42.640625 C 7.4375 -42.640625 6.894531 -42.707031 6.3125 -42.84375 C 5.738281 -42.988281 5.234375 -43.222656 4.796875 -43.546875 C 5.234375 -44.929688 5.628906 -46.144531 5.984375 -47.1875 C 6.347656 -48.238281 6.75 -49.394531 7.1875 -50.65625 L 7.515625 -50.65625 L 8.1875 -46.9375 L 34.875 -46.9375 L 34.875 -16.9375 C 34.875 -15.125 34.765625 -13.222656 34.546875 -11.234375 C 34.328125 -9.253906 33.675781 -7.4375 32.59375 -5.78125 C 31.519531 -4.132812 29.828125 -2.769531 27.515625 -1.6875 C 25.203125 -0.613281 21.953125 -0.078125 17.765625 -0.078125 L 4.125 -0.078125 Z M 5.046875 -4.375 "
           id="path40" />
      </g>
    </g>
  </g>
  <g
     fill="#5c4a49"
     fill-opacity="1"
     id="g46">
    <g
       transform="translate(267.883394, 175.488131)"
       id="g45">
      <g
         id="g44">
        <path
           d="M 3.71875 -57.9375 L 0.5 -60.984375 C 1.707031 -62.640625 2.804688 -64.097656 3.796875 -65.359375 C 4.785156 -66.628906 5.863281 -68.066406 7.03125 -69.671875 L 7.6875 -69.671875 L 7.03125 -46.9375 L 34.296875 -46.9375 L 34.296875 -30.328125 C 34.296875 -27.898438 34.101562 -25.253906 33.71875 -22.390625 C 33.332031 -19.523438 32.519531 -16.6875 31.28125 -13.875 C 30.039062 -11.070312 28.273438 -8.390625 25.984375 -5.828125 C 23.703125 -3.265625 20.632812 -1.070312 16.78125 0.75 L 15.703125 -1.328125 C 18.617188 -3.859375 20.972656 -6.222656 22.765625 -8.421875 C 24.554688 -10.628906 25.945312 -12.695312 26.9375 -14.625 C 27.925781 -16.550781 28.570312 -18.378906 28.875 -20.109375 C 29.1875 -21.847656 29.34375 -23.492188 29.34375 -25.046875 L 29.25 -42.640625 L 4.125 -42.640625 Z M 3.71875 -57.9375 "
           id="path43" />
      </g>
    </g>
  </g>
  <g
     fill="#5c4a49"
     fill-opacity="1"
     id="g49">
    <g
       transform="translate(306.311291, 175.488131)"
       id="g48">
      <g
         id="g47">
        <path
           d="M 59.34375 -30.828125 C 59.34375 -28.679688 59.269531 -26.4375 59.125 -24.09375 C 58.988281 -21.75 58.660156 -19.429688 58.140625 -17.140625 C 57.617188 -14.859375 56.875 -12.679688 55.90625 -10.609375 C 54.9375 -8.546875 53.640625 -6.742188 52.015625 -5.203125 C 50.390625 -3.660156 48.363281 -2.421875 45.9375 -1.484375 C 43.519531 -0.546875 40.628906 -0.078125 37.265625 -0.078125 L 12.96875 -0.078125 C 12.476562 -6.359375 12.023438 -12.53125 11.609375 -18.59375 C 11.191406 -24.65625 10.738281 -30.828125 10.25 -37.109375 L 10.328125 -42.640625 L 5.78125 -42.640625 C 5.289062 -42.640625 4.753906 -42.707031 4.171875 -42.84375 C 3.597656 -42.988281 3.085938 -43.222656 2.640625 -43.546875 C 3.085938 -44.929688 3.503906 -46.144531 3.890625 -47.1875 C 4.273438 -48.238281 4.660156 -49.394531 5.046875 -50.65625 L 5.453125 -50.65625 L 6.03125 -46.9375 L 14.703125 -46.9375 L 17.109375 -4.375 L 37.84375 -4.375 C 41.320312 -4.375 44.117188 -4.96875 46.234375 -6.15625 C 48.359375 -7.34375 50.023438 -8.984375 51.234375 -11.078125 C 52.453125 -13.171875 53.265625 -15.609375 53.671875 -18.390625 C 54.085938 -21.171875 54.296875 -24.1875 54.296875 -27.4375 L 54.296875 -42.640625 L 49.578125 -42.640625 C 49.085938 -42.640625 48.550781 -42.707031 47.96875 -42.84375 C 47.394531 -42.988281 46.882812 -43.222656 46.4375 -43.546875 C 46.882812 -44.929688 47.300781 -46.144531 47.6875 -47.1875 C 48.070312 -48.238281 48.484375 -49.394531 48.921875 -50.65625 L 49.25 -50.65625 L 49.828125 -46.9375 L 59.34375 -46.9375 Z M 34.375 -15.78125 C 34.101562 -15.726562 33.785156 -15.6875 33.421875 -15.65625 C 33.066406 -15.632812 32.671875 -15.625 32.234375 -15.625 L 32.390625 -42.640625 L 27.6875 -42.640625 C 27.1875 -42.640625 26.644531 -42.707031 26.0625 -42.84375 C 25.488281 -42.988281 24.984375 -43.222656 24.546875 -43.546875 C 24.984375 -44.929688 25.394531 -46.144531 25.78125 -47.1875 C 26.164062 -48.238281 26.582031 -49.394531 27.03125 -50.65625 L 27.359375 -50.65625 L 27.9375 -46.9375 L 37.265625 -46.9375 C 37.210938 -45.445312 37.144531 -44.054688 37.0625 -42.765625 C 36.976562 -41.472656 36.910156 -40.207031 36.859375 -38.96875 C 36.804688 -37.726562 36.738281 -36.472656 36.65625 -35.203125 C 36.570312 -33.929688 36.5 -32.554688 36.4375 -31.078125 Z M 34.375 -15.78125 "
           id="path46" />
      </g>
    </g>
  </g>
  <g
     fill="#5c4a49"
     fill-opacity="1"
     id="g52">
    <g
       transform="translate(368.622342, 175.488131)"
       id="g51">
      <g
         id="g50" />
    </g>
  </g>
  <g
     fill="#5c4a49"
     fill-opacity="1"
     id="g55">
    <g
       transform="translate(390.108921, 175.488131)"
       id="g54">
      <g
         id="g53">
        <path
           d="M 33.640625 -12.96875 C 33.640625 -11.039062 33.472656 -9.054688 33.140625 -7.015625 C 32.804688 -4.984375 32.085938 -2.617188 30.984375 0.078125 C 30.597656 0.078125 30.171875 0.09375 29.703125 0.125 C 29.234375 0.15625 28.863281 0.171875 28.59375 0.171875 L 28.59375 -36.4375 C 28.59375 -37.101562 28.492188 -37.789062 28.296875 -38.5 C 28.109375 -39.21875 27.789062 -39.878906 27.34375 -40.484375 C 26.90625 -41.097656 26.34375 -41.609375 25.65625 -42.015625 C 24.96875 -42.429688 24.15625 -42.640625 23.21875 -42.640625 L 5.703125 -42.640625 C 5.265625 -42.640625 4.738281 -42.707031 4.125 -42.84375 C 3.519531 -42.988281 3.023438 -43.222656 2.640625 -43.546875 C 3.085938 -44.929688 3.488281 -46.144531 3.84375 -47.1875 C 4.195312 -48.238281 4.597656 -49.394531 5.046875 -50.65625 L 5.375 -50.65625 L 6.03125 -46.9375 L 24.125 -46.9375 C 25.394531 -46.9375 26.609375 -46.71875 27.765625 -46.28125 C 28.921875 -45.84375 29.925781 -45.222656 30.78125 -44.421875 C 31.632812 -43.617188 32.320312 -42.648438 32.84375 -41.515625 C 33.375 -40.390625 33.640625 -39.140625 33.640625 -37.765625 Z M 33.640625 -12.96875 "
           id="path52" />
      </g>
    </g>
  </g>
  <g
     fill="#5c4a49"
     fill-opacity="1"
     id="g58">
    <g
       transform="translate(428.040956, 175.488131)"
       id="g57">
      <g
         id="g56">
        <path
           d="M 6.6875 -42.640625 C 6.25 -42.640625 5.726562 -42.707031 5.125 -42.84375 C 4.519531 -42.988281 4.023438 -43.222656 3.640625 -43.546875 C 4.078125 -44.929688 4.472656 -46.144531 4.828125 -47.1875 C 5.191406 -48.238281 5.59375 -49.394531 6.03125 -50.65625 L 6.359375 -50.65625 L 7.03125 -46.9375 L 17.9375 -46.9375 L 17.9375 -12.96875 C 17.9375 -11.039062 17.785156 -9.054688 17.484375 -7.015625 C 17.179688 -4.984375 16.476562 -2.617188 15.375 0.078125 C 14.925781 0.078125 14.484375 0.09375 14.046875 0.125 C 13.609375 0.15625 13.25 0.171875 12.96875 0.171875 L 12.96875 -42.640625 Z M 6.6875 -42.640625 "
           id="path55" />
      </g>
    </g>
  </g>
  <g
     fill="#5c4a49"
     fill-opacity="1"
     id="g61">
    <g
       transform="translate(451.428284, 175.488131)"
       id="g60">
      <g
         id="g59">
        <path
           d="M 20.328125 -21.8125 L 6.78125 -21.8125 L 7.4375 -29.671875 C 7.488281 -30.109375 7.515625 -30.613281 7.515625 -31.1875 C 7.515625 -31.769531 7.515625 -32.335938 7.515625 -32.890625 C 7.515625 -34.160156 7.429688 -35.46875 7.265625 -36.8125 C 7.109375 -38.164062 6.722656 -39.253906 6.109375 -40.078125 L 4.546875 -42.3125 C 5.316406 -43.90625 6.046875 -45.304688 6.734375 -46.515625 C 7.421875 -47.734375 8.148438 -49.113281 8.921875 -50.65625 L 10.984375 -46.9375 L 42.234375 -46.9375 L 41.984375 -18.671875 C 41.984375 -16.859375 41.875 -14.863281 41.65625 -12.6875 C 41.4375 -10.507812 40.785156 -8.5 39.703125 -6.65625 C 38.628906 -4.8125 36.9375 -3.253906 34.625 -1.984375 C 32.3125 -0.710938 29.0625 -0.078125 24.875 -0.078125 L 5.78125 -0.078125 C 6 -1.128906 6.175781 -1.914062 6.3125 -2.4375 C 6.457031 -2.957031 6.582031 -3.601562 6.6875 -4.375 L 28.1875 -4.375 C 30.164062 -4.375 31.742188 -4.71875 32.921875 -5.40625 C 34.109375 -6.101562 35.019531 -7.039062 35.65625 -8.21875 C 36.289062 -9.40625 36.703125 -10.78125 36.890625 -12.34375 C 37.085938 -13.914062 37.1875 -15.585938 37.1875 -17.359375 L 37.015625 -42.640625 L 11.328125 -42.640625 L 10.75 -39.75 L 10.75 -26.203125 C 12.070312 -26.085938 13.640625 -25.929688 15.453125 -25.734375 C 17.273438 -25.546875 18.984375 -25.394531 20.578125 -25.28125 Z M 20.328125 -21.8125 "
           id="path58" />
      </g>
    </g>
  </g>
  <g
     fill="#5c4a49"
     fill-opacity="1"
     id="g64">
    <g
       transform="translate(497.624395, 175.488131)"
       id="g63">
      <g
         id="g62">
        <path
           d="M 21.078125 -42.140625 C 21.078125 -39.609375 20.910156 -37.347656 20.578125 -35.359375 C 20.242188 -33.378906 19.691406 -31.5625 18.921875 -29.90625 C 18.148438 -28.257812 17.101562 -26.71875 15.78125 -25.28125 C 14.457031 -23.851562 12.78125 -22.394531 10.75 -20.90625 L 9.921875 -22.0625 C 12.117188 -24.207031 13.601562 -26.65625 14.375 -29.40625 C 15.144531 -32.164062 15.53125 -34.894531 15.53125 -37.59375 C 15.53125 -37.988281 15.503906 -38.648438 15.453125 -39.578125 C 15.398438 -40.515625 15.316406 -41.535156 15.203125 -42.640625 L 7.359375 -42.640625 C 6.859375 -42.640625 6.265625 -42.722656 5.578125 -42.890625 C 4.890625 -43.054688 4.296875 -43.273438 3.796875 -43.546875 C 4.242188 -44.816406 4.703125 -46.039062 5.171875 -47.21875 C 5.640625 -48.40625 6.066406 -49.550781 6.453125 -50.65625 L 7.1875 -50.65625 L 7.765625 -46.9375 L 21.15625 -46.9375 Z M 21.078125 -42.140625 "
           id="path61" />
      </g>
    </g>
  </g>
  <g
     fill="#5c4a49"
     fill-opacity="1"
     id="g67">
    <g
       transform="translate(523.573574, 175.488131)"
       id="g66">
      <g
         id="g65">
        <path
           d="M 44.953125 -30.828125 C 44.953125 -28.734375 44.867188 -26.539062 44.703125 -24.25 C 44.535156 -21.96875 44.191406 -19.722656 43.671875 -17.515625 C 43.148438 -15.316406 42.421875 -13.210938 41.484375 -11.203125 C 40.546875 -9.191406 39.273438 -7.398438 37.671875 -5.828125 C 36.078125 -4.253906 34.109375 -2.984375 31.765625 -2.015625 C 29.429688 -1.054688 26.640625 -0.492188 23.390625 -0.328125 L 10.5 -0.171875 L 7.515625 -37.015625 C 7.023438 -37.847656 6.472656 -38.691406 5.859375 -39.546875 C 5.253906 -40.398438 4.675781 -41.265625 4.125 -42.140625 C 4.894531 -43.742188 5.625 -45.175781 6.3125 -46.4375 C 7.007812 -47.707031 7.742188 -49.113281 8.515625 -50.65625 L 9.171875 -50.65625 L 11.5625 -46.9375 L 44.953125 -46.9375 Z M 11.5625 -42.640625 L 10.90625 -39.5 L 14.21875 -4.375 L 23.640625 -4.375 C 27.109375 -4.375 29.914062 -4.96875 32.0625 -6.15625 C 34.207031 -7.34375 35.882812 -8.984375 37.09375 -11.078125 C 38.3125 -13.171875 39.140625 -15.609375 39.578125 -18.390625 C 40.023438 -21.171875 40.25 -24.1875 40.25 -27.4375 L 40.25 -42.640625 Z M 11.5625 -42.640625 "
           id="path64" />
      </g>
    </g>
  </g>
  <g
     fill="#5c4a49"
     fill-opacity="1"
     id="g70">
    <g
       transform="translate(572.331537, 175.488131)"
       id="g69">
      <g
         id="g68">
        <path
           d="M 5.453125 -14.296875 C 5.453125 -16.222656 5.617188 -18.21875 5.953125 -20.28125 C 6.285156 -22.351562 7 -24.738281 8.09375 -27.4375 C 8.476562 -27.4375 8.90625 -27.445312 9.375 -27.46875 C 9.84375 -27.5 10.21875 -27.515625 10.5 -27.515625 L 10.5 -13.3125 C 10.5 -11.375 10.332031 -9.375 10 -7.3125 C 9.664062 -5.25 8.945312 -2.867188 7.84375 -0.171875 C 7.457031 -0.171875 7.03125 -0.15625 6.5625 -0.125 C 6.101562 -0.09375 5.734375 -0.078125 5.453125 -0.078125 Z M 39.828125 -12.96875 C 39.828125 -11.039062 39.675781 -9.054688 39.375 -7.015625 C 39.070312 -4.984375 38.367188 -2.617188 37.265625 0.078125 C 36.828125 0.078125 36.382812 0.09375 35.9375 0.125 C 35.5 0.15625 35.144531 0.171875 34.875 0.171875 L 34.875 -36.4375 C 34.875 -37.101562 34.773438 -37.789062 34.578125 -38.5 C 34.390625 -39.21875 34.070312 -39.878906 33.625 -40.484375 C 33.1875 -41.097656 32.625 -41.609375 31.9375 -42.015625 C 31.25 -42.429688 30.410156 -42.640625 29.421875 -42.640625 L 8.265625 -42.640625 C 7.765625 -42.640625 7.222656 -42.707031 6.640625 -42.84375 C 6.066406 -42.988281 5.5625 -43.222656 5.125 -43.546875 C 5.5625 -44.929688 5.957031 -46.144531 6.3125 -47.1875 C 6.675781 -48.238281 7.078125 -49.394531 7.515625 -50.65625 L 7.84375 -50.65625 L 8.515625 -46.9375 L 30.40625 -46.9375 C 31.625 -46.9375 32.8125 -46.71875 33.96875 -46.28125 C 35.125 -45.84375 36.128906 -45.222656 36.984375 -44.421875 C 37.835938 -43.617188 38.523438 -42.648438 39.046875 -41.515625 C 39.566406 -40.390625 39.828125 -39.140625 39.828125 -37.765625 Z M 39.828125 -12.96875 "
           id="path67" />
      </g>
    </g>
  </g>
</svg>
