<?xml version="1.0" encoding="UTF-8" standalone="no"?>
<svg
   width="715.48883"
   zoomAndPan="magnify"
   viewBox="0 0 536.61662 124.60508"
   height="166.14011"
   preserveAspectRatio="xMidYMid"
   version="1.0"
   id="svg70"
   xmlns="http://www.w3.org/2000/svg"
   xmlns:svg="http://www.w3.org/2000/svg">
  <defs
     id="defs1" />
  <rect
     x="-1.3855015e-07"
     width="536.61664"
     fill="#ffffff"
     y="6.0738824e-07"
     height="124.60509"
     fill-opacity="1"
     id="rect1"
     style="stroke-width:0.266032" />
  <rect
     x="-203.66858"
     width="972"
     fill="#ffffff"
     y="-166.2737"
     height="972"
     fill-opacity="1"
     id="rect2"
     style="fill:#ffffff;fill-opacity:0" />
  <g
     fill="#5c4a49"
     fill-opacity="1"
     id="g40"
     transform="translate(-122.66859,-85.273696)">
    <g
       transform="translate(179.95375,175.48813)"
       id="g39">
      <g
         id="g38">
        <path
           d="m 8.671875,-0.078125 v -28.6875 c 0,-0.820313 0.09375,-1.878906 0.28125,-3.171875 0.195313,-1.289062 0.53125,-2.613281 1,-3.96875 0.46875,-1.351562 1.0625,-2.632812 1.78125,-3.84375 0.71875,-1.207031 1.597656,-2.171875 2.640625,-2.890625 H 8.1875 c -0.5,0 -1.042969,-0.06641 -1.625,-0.203125 -0.574219,-0.144531 -1.078125,-0.378906 -1.515625,-0.703125 0.4375,-1.382813 0.832031,-2.597656 1.1875,-3.640625 C 6.597656,-48.238281 7,-49.394531 7.4375,-50.65625 h 0.328125 l 0.65625,3.71875 h 27.03125 c 1.269531,0 2.484375,0.21875 3.640625,0.65625 1.15625,0.4375 2.160156,1.058594 3.015625,1.859375 0.851563,0.804687 1.539063,1.773437 2.0625,2.90625 0.519531,1.125 0.78125,2.375 0.78125,3.75 v 24.796875 c 0,1.929688 -0.167969,3.914062 -0.5,5.953125 -0.324219,2.03125 -1.039063,4.398437 -2.140625,7.09375 z m 4.96875,-12.8125 c 0,0.605469 0,1.171875 0,1.703125 0,0.523438 -0.03125,1.117188 -0.09375,1.78125 -0.05469,0.65625 -0.136719,1.386719 -0.25,2.1875 -0.105469,0.792969 -0.242187,1.742188 -0.40625,2.84375 l 27.03125,0.15625 V -36.4375 c 0,-0.664062 -0.101563,-1.351562 -0.296875,-2.0625 -0.1875,-0.71875 -0.507812,-1.378906 -0.953125,-1.984375 -0.4375,-0.613281 -1,-1.125 -1.6875,-1.53125 -0.6875,-0.414063 -1.5,-0.625 -2.4375,-0.625 H 20 c -0.554688,0 -1.203125,0.277344 -1.953125,0.828125 -0.742187,0.554688 -1.445313,1.242188 -2.109375,2.0625 -0.65625,0.824219 -1.203125,1.746094 -1.640625,2.765625 -0.4375,1.023437 -0.65625,2 -0.65625,2.9375 z m 0,0"
           id="path37" />
      </g>
    </g>
  </g>
  <g
     fill="#5c4a49"
     fill-opacity="1"
     id="g43"
     transform="translate(-122.66859,-85.273696)">
    <g
       transform="translate(228.62908,175.48813)"
       id="g42">
      <g
         id="g41">
        <path
           d="M 5.046875,-4.375 H 20.90625 c 1.988281,0 3.570312,-0.34375 4.75,-1.03125 1.1875,-0.695312 2.097656,-1.632812 2.734375,-2.8125 0.632813,-1.1875 1.046875,-2.5625 1.234375,-4.125 0.195312,-1.570312 0.296875,-3.242188 0.296875,-5.015625 v -25.28125 H 7.9375 c -0.5,0 -1.042969,-0.06641 -1.625,-0.203125 -0.574219,-0.144531 -1.078125,-0.378906 -1.515625,-0.703125 0.4375,-1.382813 0.832031,-2.597656 1.1875,-3.640625 C 6.347656,-48.238281 6.75,-49.394531 7.1875,-50.65625 H 7.515625 L 8.1875,-46.9375 H 34.875 v 30 c 0,1.8125 -0.109375,3.714844 -0.328125,5.703125 -0.21875,1.980469 -0.871094,3.796875 -1.953125,5.453125 -1.074219,1.648438 -2.765625,3.011719 -5.078125,4.09375 -2.3125,1.074219 -5.5625,1.609375 -9.75,1.609375 H 4.125 Z m 0,0"
           id="path40" />
      </g>
    </g>
  </g>
  <g
     fill="#5c4a49"
     fill-opacity="1"
     id="g46"
     transform="translate(-122.66859,-85.273696)">
    <g
       transform="translate(267.88339,175.48813)"
       id="g45">
      <g
         id="g44">
        <path
           d="M 3.71875,-57.9375 0.5,-60.984375 c 1.207031,-1.65625 2.304688,-3.113281 3.296875,-4.375 0.988281,-1.269531 2.066406,-2.707031 3.234375,-4.3125 H 7.6875 L 7.03125,-46.9375 h 27.265625 v 16.609375 c 0,2.429687 -0.195313,5.074219 -0.578125,7.9375 -0.386719,2.867187 -1.199219,5.703125 -2.4375,8.515625 -1.242188,2.804688 -3.007812,5.484375 -5.296875,8.046875 -2.28125,2.5625 -5.351563,4.757813 -9.203125,6.578125 l -1.078125,-2.078125 c 2.914063,-2.53125 5.269531,-4.894531 7.0625,-7.09375 1.789063,-2.207031 3.179687,-4.273437 4.171875,-6.203125 0.988281,-1.925781 1.632812,-3.753906 1.9375,-5.484375 0.3125,-1.738281 0.46875,-3.382813 0.46875,-4.9375 L 29.25,-42.640625 H 4.125 Z m 0,0"
           id="path43" />
      </g>
    </g>
  </g>
  <g
     fill="#5c4a49"
     fill-opacity="1"
     id="g49"
     transform="translate(-122.66859,-85.273696)">
    <g
       transform="translate(306.31129,175.48813)"
       id="g48">
      <g
         id="g47">
        <path
           d="m 59.34375,-30.828125 c 0,2.148437 -0.07422,4.390625 -0.21875,6.734375 -0.136719,2.34375 -0.464844,4.664062 -0.984375,6.953125 -0.523437,2.28125 -1.265625,4.460937 -2.234375,6.53125 -0.96875,2.0625 -2.265625,3.867187 -3.890625,5.40625 -1.625,1.542969 -3.652344,2.78125 -6.078125,3.71875 -2.417969,0.9375 -5.308594,1.40625 -8.671875,1.40625 H 12.96875 C 12.476562,-6.359375 12.023438,-12.53125 11.609375,-18.59375 11.191406,-24.65625 10.738281,-30.828125 10.25,-37.109375 l 0.07813,-5.53125 H 5.78125 c -0.492188,0 -1.027344,-0.06641 -1.609375,-0.203125 -0.574219,-0.144531 -1.085937,-0.378906 -1.53125,-0.703125 0.445313,-1.382813 0.863281,-2.597656 1.25,-3.640625 0.382813,-1.050781 0.769531,-2.207031 1.15625,-3.46875 h 0.40625 l 0.578125,3.71875 h 8.671875 l 2.40625,42.5625 H 37.84375 c 3.476562,0 6.273438,-0.59375 8.390625,-1.78125 2.125,-1.1875 3.789063,-2.828125 5,-4.921875 1.21875,-2.09375 2.03125,-4.53125 2.4375,-7.3125 0.414063,-2.78125 0.625,-5.796875 0.625,-9.046875 v -15.203125 h -4.71875 c -0.492187,0 -1.027344,-0.06641 -1.609375,-0.203125 -0.574219,-0.144531 -1.085938,-0.378906 -1.53125,-0.703125 0.445312,-1.382813 0.863281,-2.597656 1.25,-3.640625 0.382812,-1.050781 0.796875,-2.207031 1.234375,-3.46875 H 49.25 l 0.578125,3.71875 H 59.34375 Z M 34.375,-15.78125 c -0.273438,0.05469 -0.589844,0.09375 -0.953125,0.125 -0.355469,0.02344 -0.75,0.03125 -1.1875,0.03125 l 0.15625,-27.015625 H 27.6875 c -0.5,0 -1.042969,-0.06641 -1.625,-0.203125 -0.574219,-0.144531 -1.078125,-0.378906 -1.515625,-0.703125 0.4375,-1.382813 0.847656,-2.597656 1.234375,-3.640625 0.382812,-1.050781 0.800781,-2.207031 1.25,-3.46875 h 0.328125 l 0.578125,3.71875 h 9.328125 c -0.05469,1.492188 -0.121094,2.882812 -0.203125,4.171875 -0.08594,1.292969 -0.152344,2.558594 -0.203125,3.796875 -0.05469,1.242188 -0.121094,2.496094 -0.203125,3.765625 -0.08594,1.273437 -0.15625,2.648437 -0.21875,4.125 z m 0,0"
           id="path46" />
      </g>
    </g>
  </g>
  <g
     fill="#5c4a49"
     fill-opacity="1"
     id="g55"
     transform="translate(-122.66859,-85.273696)">
    <g
       transform="translate(390.10892,175.48813)"
       id="g54">
      <g
         id="g53">
        <path
           d="m 33.640625,-12.96875 c 0,1.929688 -0.167969,3.914062 -0.5,5.953125 -0.335937,2.03125 -1.054687,4.398437 -2.15625,7.09375 -0.386719,0 -0.8125,0.015625 -1.28125,0.046875 -0.46875,0.03125 -0.839844,0.046875 -1.109375,0.046875 V -36.4375 c 0,-0.664062 -0.101562,-1.351562 -0.296875,-2.0625 -0.1875,-0.71875 -0.507813,-1.378906 -0.953125,-1.984375 -0.4375,-0.613281 -1,-1.125 -1.6875,-1.53125 -0.6875,-0.414063 -1.5,-0.625 -2.4375,-0.625 H 5.703125 c -0.4375,0 -0.964844,-0.06641 -1.578125,-0.203125 -0.605469,-0.144531 -1.101562,-0.378906 -1.484375,-0.703125 0.445313,-1.382813 0.847656,-2.597656 1.203125,-3.640625 0.351562,-1.050781 0.753906,-2.207031 1.203125,-3.46875 H 5.375 l 0.65625,3.71875 H 24.125 c 1.269531,0 2.484375,0.21875 3.640625,0.65625 1.15625,0.4375 2.160156,1.058594 3.015625,1.859375 0.851562,0.804687 1.539062,1.773437 2.0625,2.90625 0.53125,1.125 0.796875,2.375 0.796875,3.75 z m 0,0"
           id="path52" />
      </g>
    </g>
  </g>
  <g
     fill="#5c4a49"
     fill-opacity="1"
     id="g58"
     transform="translate(-122.66859,-85.273696)">
    <g
       transform="translate(428.04096,175.48813)"
       id="g57">
      <g
         id="g56">
        <path
           d="m 6.6875,-42.640625 c -0.4375,0 -0.960938,-0.06641 -1.5625,-0.203125 -0.605469,-0.144531 -1.101562,-0.378906 -1.484375,-0.703125 0.4375,-1.382813 0.832031,-2.597656 1.1875,-3.640625 0.363281,-1.050781 0.765625,-2.207031 1.203125,-3.46875 H 6.359375 L 7.03125,-46.9375 H 17.9375 v 33.96875 c 0,1.929688 -0.152344,3.914062 -0.453125,5.953125 -0.304687,2.03125 -1.007813,4.398437 -2.109375,7.09375 -0.449219,0 -0.890625,0.015625 -1.328125,0.046875 C 13.609375,0.15625 13.25,0.171875 12.96875,0.171875 v -42.8125 z m 0,0"
           id="path55" />
      </g>
    </g>
  </g>
  <g
     fill="#5c4a49"
     fill-opacity="1"
     id="g61"
     transform="translate(-122.66859,-85.273696)">
    <g
       transform="translate(451.42828,175.48813)"
       id="g60">
      <g
         id="g59">
        <path
           d="M 20.328125,-21.8125 H 6.78125 l 0.65625,-7.859375 c 0.050781,-0.4375 0.078125,-0.941406 0.078125,-1.515625 0,-0.582031 0,-1.148438 0,-1.703125 0,-1.269531 -0.085937,-2.578125 -0.25,-3.921875 -0.15625,-1.351562 -0.542969,-2.441406 -1.15625,-3.265625 l -1.5625,-2.234375 c 0.769531,-1.59375 1.5,-2.992188 2.1875,-4.203125 0.6875,-1.21875 1.414063,-2.597656 2.1875,-4.140625 l 2.0625,3.71875 h 31.25 l -0.25,28.265625 c 0,1.8125 -0.109375,3.808594 -0.328125,5.984375 -0.21875,2.179688 -0.871094,4.1875 -1.953125,6.03125 -1.074219,1.84375 -2.765625,3.402344 -5.078125,4.671875 -2.3125,1.273437 -5.5625,1.90625 -9.75,1.90625 H 5.78125 C 6,-1.128906 6.175781,-1.914062 6.3125,-2.4375 6.457031,-2.957031 6.582031,-3.601562 6.6875,-4.375 h 21.5 c 1.976562,0 3.554688,-0.34375 4.734375,-1.03125 1.1875,-0.695312 2.097656,-1.632812 2.734375,-2.8125 0.632812,-1.1875 1.046875,-2.5625 1.234375,-4.125 0.195313,-1.570312 0.296875,-3.242188 0.296875,-5.015625 l -0.171875,-25.28125 h -25.6875 L 10.75,-39.75 v 13.546875 c 1.320312,0.117187 2.890625,0.273437 4.703125,0.46875 1.820313,0.1875 3.53125,0.339844 5.125,0.453125 z m 0,0"
           id="path58" />
      </g>
    </g>
  </g>
  <g
     fill="#5c4a49"
     fill-opacity="1"
     id="g64"
     transform="translate(-122.66859,-85.273696)">
    <g
       transform="translate(497.62439,175.48813)"
       id="g63">
      <g
         id="g62">
        <path
           d="m 21.078125,-42.140625 c 0,2.53125 -0.167969,4.792969 -0.5,6.78125 -0.335937,1.980469 -0.886719,3.796875 -1.65625,5.453125 -0.773437,1.648438 -1.820313,3.1875 -3.140625,4.625 -1.324219,1.429688 -3,2.886719 -5.03125,4.375 L 9.921875,-22.0625 c 2.195313,-2.144531 3.679687,-4.59375 4.453125,-7.34375 0.769531,-2.757812 1.15625,-5.488281 1.15625,-8.1875 0,-0.394531 -0.02734,-1.054688 -0.07813,-1.984375 -0.05469,-0.9375 -0.136719,-1.957031 -0.25,-3.0625 H 7.35937 c -0.5,0 -1.09375,-0.08203 -1.78125,-0.25 -0.6875,-0.164063 -1.28125,-0.382813 -1.78125,-0.65625 0.445313,-1.269531 0.90625,-2.492187 1.375,-3.671875 0.46875,-1.1875 0.894531,-2.332031 1.28125,-3.4375 H 7.1875 l 0.578125,3.71875 H 21.15625 Z m 0,0"
           id="path61" />
      </g>
    </g>
  </g>
  <g
     fill="#5c4a49"
     fill-opacity="1"
     id="g67"
     transform="translate(-122.66859,-85.273696)">
    <g
       transform="translate(523.57357,175.48813)"
       id="g66">
      <g
         id="g65">
        <path
           d="m 44.953125,-30.828125 c 0,2.09375 -0.08594,4.289063 -0.25,6.578125 -0.167969,2.28125 -0.511719,4.527344 -1.03125,6.734375 -0.523437,2.199219 -1.25,4.304687 -2.1875,6.3125 -0.9375,2.011719 -2.210937,3.804687 -3.8125,5.375 -1.59375,1.574219 -3.5625,2.84375 -5.90625,3.8125 -2.335937,0.960937 -5.125,1.523437 -8.375,1.6875 L 10.5,-0.171875 7.515625,-37.015625 c -0.492187,-0.832031 -1.042969,-1.675781 -1.65625,-2.53125 -0.605469,-0.851563 -1.183594,-1.71875 -1.734375,-2.59375 0.769531,-1.601563 1.5,-3.035156 2.1875,-4.296875 0.695312,-1.269531 1.429688,-2.675781 2.203125,-4.21875 h 0.65625 L 11.5625,-46.9375 H 44.953125 Z M 11.5625,-42.640625 10.90625,-39.5 l 3.3125,35.125 h 9.421875 c 3.46875,0 6.273437,-0.59375 8.421875,-1.78125 2.144531,-1.1875 3.820312,-2.828125 5.03125,-4.921875 1.21875,-2.09375 2.046875,-4.53125 2.484375,-7.3125 C 40.023438,-21.171875 40.25,-24.1875 40.25,-27.4375 v -15.203125 z m 0,0"
           id="path64" />
      </g>
    </g>
  </g>
  <g
     fill="#5c4a49"
     fill-opacity="1"
     id="g70"
     transform="translate(-122.66859,-85.273696)">
    <g
       transform="translate(572.33154,175.48813)"
       id="g69">
      <g
         id="g68">
        <path
           d="m 5.453125,-14.296875 c 0,-1.925781 0.164063,-3.921875 0.5,-5.984375 C 6.285156,-22.351562 7,-24.738281 8.09375,-27.4375 c 0.382812,0 0.8125,-0.0078 1.28125,-0.03125 0.46875,-0.03125 0.84375,-0.04687 1.125,-0.04687 v 14.20312 c 0,1.9375 -0.167969,3.9375 -0.5,6 -0.335938,2.0625 -1.054688,4.445312 -2.15625,7.140625 -0.386719,0 -0.8125,0.015625 -1.28125,0.046875 -0.460938,0.03125 -0.828125,0.046875 -1.109375,0.046875 z m 34.375,1.328125 c 0,1.929688 -0.152344,3.914062 -0.453125,5.953125 -0.304688,2.03125 -1.007812,4.398437 -2.109375,7.09375 -0.4375,0 -0.882813,0.015625 -1.328125,0.046875 C 35.5,0.15625 35.144531,0.171875 34.875,0.171875 V -36.4375 c 0,-0.664062 -0.101562,-1.351562 -0.296875,-2.0625 -0.1875,-0.71875 -0.507813,-1.378906 -0.953125,-1.984375 -0.4375,-0.613281 -1,-1.125 -1.6875,-1.53125 -0.6875,-0.414063 -1.527344,-0.625 -2.515625,-0.625 H 8.265625 c -0.5,0 -1.042969,-0.06641 -1.625,-0.203125 C 6.066406,-42.988281 5.5625,-43.222656 5.125,-43.546875 c 0.4375,-1.382813 0.832031,-2.597656 1.1875,-3.640625 0.363281,-1.050781 0.765625,-2.207031 1.203125,-3.46875 H 7.84375 l 0.671875,3.71875 H 30.40625 c 1.21875,0 2.40625,0.21875 3.5625,0.65625 1.15625,0.4375 2.160156,1.058594 3.015625,1.859375 0.851563,0.804687 1.539063,1.773437 2.0625,2.90625 0.519531,1.125 0.78125,2.375 0.78125,3.75 z m 0,0"
           id="path67" />
      </g>
    </g>
  </g>
</svg>
