<?xml version="1.0" encoding="UTF-8"?>
<svg width="715.49" height="166.14" preserveAspectRatio="xMidYMid" version="1.0" viewBox="0 0 536.62 124.61" xmlns="http://www.w3.org/2000/svg" zoomAndPan="magnify">
<rect x="-1.3855e-7" y="6.0739e-7" width="536.62" height="124.61" fill="#fff" stroke-width=".26603"/>
<rect x="-203.67" y="-166.27" width="972" height="972" fill="#fff" fill-opacity="0"/>
<g transform="translate(-122.67 -85.274)" fill="#5c4a49">
<g transform="translate(179.95 175.49)">
<path d="m8.6719-0.078125v-28.688c0-0.82031 0.09375-1.8789 0.28125-3.1719 0.19531-1.2891 0.53125-2.6133 1-3.9688 0.46875-1.3516 1.0625-2.6328 1.7812-3.8438 0.71875-1.207 1.5977-2.1719 2.6406-2.8906h-6.1875c-0.5 0-1.043-0.06641-1.625-0.20312-0.57422-0.14453-1.0781-0.37891-1.5156-0.70312 0.4375-1.3828 0.83203-2.5977 1.1875-3.6406 0.36328-1.0508 0.76562-2.207 1.2031-3.4688h0.32812l0.65625 3.7188h27.031c1.2695 0 2.4844 0.21875 3.6406 0.65625s2.1602 1.0586 3.0156 1.8594c0.85156 0.80469 1.5391 1.7734 2.0625 2.9062 0.51953 1.125 0.78125 2.375 0.78125 3.75v24.797c0 1.9297-0.16797 3.9141-0.5 5.9531-0.32422 2.0312-1.0391 4.3984-2.1406 7.0938zm4.9688-12.812v1.7031c0 0.52344-0.03125 1.1172-0.09375 1.7812-0.05469 0.65625-0.13672 1.3867-0.25 2.1875-0.10547 0.79297-0.24219 1.7422-0.40625 2.8438l27.031 0.15625v-32.219c0-0.66406-0.10156-1.3516-0.29688-2.0625-0.1875-0.71875-0.50781-1.3789-0.95312-1.9844-0.4375-0.61328-1-1.125-1.6875-1.5312-0.6875-0.41406-1.5-0.625-2.4375-0.625h-14.547c-0.55469 0-1.2031 0.27734-1.9531 0.82812-0.74219 0.55469-1.4453 1.2422-2.1094 2.0625-0.65625 0.82422-1.2031 1.7461-1.6406 2.7656-0.4375 1.0234-0.65625 2-0.65625 2.9375z"/>
</g>
</g>
<g transform="translate(-122.67 -85.274)" fill="#5c4a49">
<g transform="translate(228.63 175.49)">
<path d="m5.0469-4.375h15.859c1.9883 0 3.5703-0.34375 4.75-1.0312 1.1875-0.69531 2.0977-1.6328 2.7344-2.8125 0.63281-1.1875 1.0469-2.5625 1.2344-4.125 0.19531-1.5703 0.29688-3.2422 0.29688-5.0156v-25.281h-21.984c-0.5 0-1.043-0.06641-1.625-0.20312-0.57422-0.14453-1.0781-0.37891-1.5156-0.70312 0.4375-1.3828 0.83203-2.5977 1.1875-3.6406 0.36328-1.0508 0.76562-2.207 1.2031-3.4688h0.32812l0.67188 3.7188h26.688v30c0 1.8125-0.10938 3.7148-0.32812 5.7031-0.21875 1.9805-0.87109 3.7969-1.9531 5.4531-1.0742 1.6484-2.7656 3.0117-5.0781 4.0938-2.3125 1.0742-5.5625 1.6094-9.75 1.6094h-13.641z"/>
</g>
</g>
<g transform="translate(-122.67 -85.274)" fill="#5c4a49">
<g transform="translate(267.88 175.49)">
<path d="m3.7188-57.938-3.2188-3.0469c1.207-1.6562 2.3047-3.1133 3.2969-4.375 0.98828-1.2695 2.0664-2.707 3.2344-4.3125h0.65625l-0.65625 22.734h27.266v16.609c0 2.4297-0.19531 5.0742-0.57812 7.9375-0.38672 2.8672-1.1992 5.7031-2.4375 8.5156-1.2422 2.8047-3.0078 5.4844-5.2969 8.0469-2.2812 2.5625-5.3516 4.7578-9.2031 6.5781l-1.0781-2.0781c2.9141-2.5312 5.2695-4.8945 7.0625-7.0938 1.7891-2.207 3.1797-4.2734 4.1719-6.2031 0.98828-1.9258 1.6328-3.7539 1.9375-5.4844 0.3125-1.7383 0.46875-3.3828 0.46875-4.9375l-0.09375-17.594h-25.125z"/>
</g>
</g>
<g transform="translate(-122.67 -85.274)" fill="#5c4a49">
<g transform="translate(306.31 175.49)">
<path d="m59.344-30.828c0 2.1484-0.07422 4.3906-0.21875 6.7344-0.13672 2.3438-0.46484 4.6641-0.98438 6.9531-0.52344 2.2812-1.2656 4.4609-2.2344 6.5312-0.96875 2.0625-2.2656 3.8672-3.8906 5.4062-1.625 1.543-3.6523 2.7812-6.0781 3.7188-2.418 0.9375-5.3086 1.4062-8.6719 1.4062h-24.297c-0.49219-6.2812-0.94531-12.453-1.3594-18.516-0.41797-6.0625-0.87109-12.234-1.3594-18.516l0.07813-5.5312h-4.5469c-0.49219 0-1.0273-0.06641-1.6094-0.20312-0.57422-0.14453-1.0859-0.37891-1.5312-0.70312 0.44531-1.3828 0.86328-2.5977 1.25-3.6406 0.38281-1.0508 0.76953-2.207 1.1562-3.4688h0.40625l0.57812 3.7188h8.6719l2.4062 42.562h20.734c3.4766 0 6.2734-0.59375 8.3906-1.7812 2.125-1.1875 3.7891-2.8281 5-4.9219 1.2188-2.0938 2.0312-4.5312 2.4375-7.3125 0.41406-2.7812 0.625-5.7969 0.625-9.0469v-15.203h-4.7188c-0.49219 0-1.0273-0.06641-1.6094-0.20312-0.57422-0.14453-1.0859-0.37891-1.5312-0.70312 0.44531-1.3828 0.86328-2.5977 1.25-3.6406 0.38281-1.0508 0.79688-2.207 1.2344-3.4688h0.32812l0.57812 3.7188h9.5156zm-24.969 15.047c-0.27344 0.05469-0.58984 0.09375-0.95312 0.125-0.35547 0.02344-0.75 0.03125-1.1875 0.03125l0.15625-27.016h-4.7031c-0.5 0-1.043-0.06641-1.625-0.20312-0.57422-0.14453-1.0781-0.37891-1.5156-0.70312 0.4375-1.3828 0.84766-2.5977 1.2344-3.6406 0.38281-1.0508 0.80078-2.207 1.25-3.4688h0.32812l0.57812 3.7188h9.3281c-0.05469 1.4922-0.12109 2.8828-0.20312 4.1719-0.08594 1.293-0.15234 2.5586-0.20312 3.7969-0.05469 1.2422-0.12109 2.4961-0.20312 3.7656-0.08594 1.2734-0.15625 2.6484-0.21875 4.125z"/>
</g>
</g>
<g transform="translate(-122.67 -85.274)" fill="#5c4a49">
<g transform="translate(390.11 175.49)">
<path d="m33.641-12.969c0 1.9297-0.16797 3.9141-0.5 5.9531-0.33594 2.0312-1.0547 4.3984-2.1562 7.0938-0.38672 0-0.8125 0.015625-1.2812 0.046875s-0.83984 0.046875-1.1094 0.046875v-36.609c0-0.66406-0.10156-1.3516-0.29688-2.0625-0.1875-0.71875-0.50781-1.3789-0.95312-1.9844-0.4375-0.61328-1-1.125-1.6875-1.5312-0.6875-0.41406-1.5-0.625-2.4375-0.625h-17.516c-0.4375 0-0.96484-0.06641-1.5781-0.20312-0.60547-0.14453-1.1016-0.37891-1.4844-0.70312 0.44531-1.3828 0.84766-2.5977 1.2031-3.6406 0.35156-1.0508 0.75391-2.207 1.2031-3.4688h0.32812l0.65625 3.7188h18.094c1.2695 0 2.4844 0.21875 3.6406 0.65625s2.1602 1.0586 3.0156 1.8594c0.85156 0.80469 1.5391 1.7734 2.0625 2.9062 0.53125 1.125 0.79688 2.375 0.79688 3.75z"/>
</g>
</g>
<g transform="translate(-122.67 -85.274)" fill="#5c4a49">
<g transform="translate(428.04 175.49)">
<path d="m6.6875-42.641c-0.4375 0-0.96094-0.06641-1.5625-0.20312-0.60547-0.14453-1.1016-0.37891-1.4844-0.70312 0.4375-1.3828 0.83203-2.5977 1.1875-3.6406 0.36328-1.0508 0.76562-2.207 1.2031-3.4688h0.32812l0.67188 3.7188h10.906v33.969c0 1.9297-0.15234 3.9141-0.45312 5.9531-0.30469 2.0312-1.0078 4.3984-2.1094 7.0938-0.44922 0-0.89062 0.015625-1.3281 0.046875s-0.79688 0.046875-1.0781 0.046875v-42.812z"/>
</g>
</g>
<g transform="translate(-122.67 -85.274)" fill="#5c4a49">
<g transform="translate(451.43 175.49)">
<path d="m20.328-21.812h-13.547l0.65625-7.8594c0.050781-0.4375 0.078125-0.94141 0.078125-1.5156v-1.7031c0-1.2695-0.085937-2.5781-0.25-3.9219-0.15625-1.3516-0.54297-2.4414-1.1562-3.2656l-1.5625-2.2344c0.76953-1.5938 1.5-2.9922 2.1875-4.2031 0.6875-1.2188 1.4141-2.5977 2.1875-4.1406l2.0625 3.7188h31.25l-0.25 28.266c0 1.8125-0.10938 3.8086-0.32812 5.9844-0.21875 2.1797-0.87109 4.1875-1.9531 6.0312-1.0742 1.8438-2.7656 3.4023-5.0781 4.6719-2.3125 1.2734-5.5625 1.9062-9.75 1.9062h-19.094c0.21875-1.0508 0.39453-1.8359 0.53125-2.3594 0.14453-0.51953 0.26953-1.1641 0.375-1.9375h21.5c1.9766 0 3.5547-0.34375 4.7344-1.0312 1.1875-0.69531 2.0977-1.6328 2.7344-2.8125 0.63281-1.1875 1.0469-2.5625 1.2344-4.125 0.19531-1.5703 0.29688-3.2422 0.29688-5.0156l-0.17188-25.281h-25.688l-0.57812 2.8906v13.547c1.3203 0.11719 2.8906 0.27344 4.7031 0.46875 1.8203 0.1875 3.5312 0.33984 5.125 0.45312z"/>
</g>
</g>
<g transform="translate(-122.67 -85.274)" fill="#5c4a49">
<g transform="translate(497.62 175.49)">
<path d="m21.078-42.141c0 2.5312-0.16797 4.793-0.5 6.7812-0.33594 1.9805-0.88672 3.7969-1.6562 5.4531-0.77344 1.6484-1.8203 3.1875-3.1406 4.625-1.3242 1.4297-3 2.8867-5.0312 4.375l-0.82812-1.1562c2.1953-2.1445 3.6797-4.5938 4.4531-7.3438 0.76953-2.7578 1.1562-5.4883 1.1562-8.1875 0-0.39453-0.02734-1.0547-0.07813-1.9844-0.05469-0.9375-0.13672-1.957-0.25-3.0625h-7.8438c-0.5 0-1.0938-0.08203-1.7812-0.25-0.6875-0.16406-1.2812-0.38281-1.7812-0.65625 0.44531-1.2695 0.90625-2.4922 1.375-3.6719 0.46875-1.1875 0.89453-2.332 1.2812-3.4375h0.73438l0.57812 3.7188h13.391z"/>
</g>
</g>
<g transform="translate(-122.67 -85.274)" fill="#5c4a49">
<g transform="translate(523.57 175.49)">
<path d="m44.953-30.828c0 2.0938-0.08594 4.2891-0.25 6.5781-0.16797 2.2812-0.51172 4.5273-1.0312 6.7344-0.52344 2.1992-1.25 4.3047-2.1875 6.3125-0.9375 2.0117-2.2109 3.8047-3.8125 5.375-1.5938 1.5742-3.5625 2.8438-5.9062 3.8125-2.3359 0.96094-5.125 1.5234-8.375 1.6875l-12.891 0.15625-2.9844-36.844c-0.49219-0.83203-1.043-1.6758-1.6562-2.5312-0.60547-0.85156-1.1836-1.7188-1.7344-2.5938 0.76953-1.6016 1.5-3.0352 2.1875-4.2969 0.69531-1.2695 1.4297-2.6758 2.2031-4.2188h0.65625l2.3906 3.7188h33.391zm-33.391-11.812-0.65625 3.1406 3.3125 35.125h9.4219c3.4688 0 6.2734-0.59375 8.4219-1.7812 2.1445-1.1875 3.8203-2.8281 5.0312-4.9219 1.2188-2.0938 2.0469-4.5312 2.4844-7.3125 0.44531-2.7812 0.67188-5.7969 0.67188-9.0469v-15.203z"/>
</g>
</g>
<g transform="translate(-122.67 -85.274)" fill="#5c4a49">
<g transform="translate(572.33 175.49)">
<path d="m5.4531-14.297c0-1.9258 0.16406-3.9219 0.5-5.9844 0.33203-2.0703 1.0469-4.457 2.1406-7.1562 0.38281 0 0.8125-0.0078 1.2812-0.03125 0.46875-0.03125 0.84375-0.04687 1.125-0.04687v14.203c0 1.9375-0.16797 3.9375-0.5 6-0.33594 2.0625-1.0547 4.4453-2.1562 7.1406-0.38672 0-0.8125 0.015625-1.2812 0.046875-0.46094 0.03125-0.82812 0.046875-1.1094 0.046875zm34.375 1.3281c0 1.9297-0.15234 3.9141-0.45312 5.9531-0.30469 2.0312-1.0078 4.3984-2.1094 7.0938-0.4375 0-0.88281 0.015625-1.3281 0.046875-0.4375 0.03125-0.79297 0.046875-1.0625 0.046875v-36.609c0-0.66406-0.10156-1.3516-0.29688-2.0625-0.1875-0.71875-0.50781-1.3789-0.95312-1.9844-0.4375-0.61328-1-1.125-1.6875-1.5312-0.6875-0.41406-1.5273-0.625-2.5156-0.625h-21.156c-0.5 0-1.043-0.06641-1.625-0.20312-0.57422-0.14453-1.0781-0.37891-1.5156-0.70312 0.4375-1.3828 0.83203-2.5977 1.1875-3.6406 0.36328-1.0508 0.76562-2.207 1.2031-3.4688h0.32812l0.67188 3.7188h21.891c1.2188 0 2.4062 0.21875 3.5625 0.65625s2.1602 1.0586 3.0156 1.8594c0.85156 0.80469 1.5391 1.7734 2.0625 2.9062 0.51953 1.125 0.78125 2.375 0.78125 3.75z"/>
</g>
</g>
</svg>
