<svg xmlns="http://www.w3.org/2000/svg" xmlns:xlink="http://www.w3.org/1999/xlink" width="500" zoomAndPan="magnify" viewBox="0 0 375 374.999991" height="500" preserveAspectRatio="xMidYMid meet" version="1.0"><defs><g/><clipPath id="1b320cc338"><path d="M 0.480469 30 L 1 30 L 1 31 L 0.480469 31 Z M 0.480469 30 " clip-rule="nonzero"/></clipPath><clipPath id="14e3aeee62"><rect x="0" width="198" y="0" height="43"/></clipPath></defs><rect x="-37.5" width="450" fill="#ffffff" y="-37.499999" height="449.999989" fill-opacity="1"/><rect x="-37.5" width="450" fill="#f6f5f4" y="-37.499999" height="449.999989" fill-opacity="1"/><g transform="matrix(1, 0, 0, 1, 90, 156)"><g clip-path="url(#14e3aeee62)"><g clip-path="url(#1b320cc338)"><g fill="#2e2a27" fill-opacity="1"><g transform="translate(0.79847, 30.910449)"><g/></g></g></g><g fill="#2e2a27" fill-opacity="1"><g transform="translate(11.40394, 30.910449)"><g><path d="M 2.21875 -0.296875 C 2.738281 -0.296875 3.1875 -0.484375 3.5625 -0.859375 C 3.9375 -1.234375 4.132812 -1.6875 4.15625 -2.21875 L 4.15625 -19 C 4.132812 -19.519531 3.9375 -19.96875 3.5625 -20.34375 C 3.1875 -20.71875 2.738281 -20.90625 2.21875 -20.90625 L 1.8125 -20.90625 L 1.8125 -21.203125 L 8.453125 -21.203125 L 8.453125 -20.90625 L 8.0625 -20.90625 C 7.332031 -20.90625 6.773438 -20.59375 6.390625 -19.96875 C 6.210938 -19.664062 6.125 -19.34375 6.125 -19 L 6.125 -0.9375 L 10.453125 -0.9375 C 11.941406 -0.9375 13.082031 -1.269531 13.875 -1.9375 C 14.664062 -2.601562 15.320312 -3.59375 15.84375 -4.90625 L 16.140625 -4.90625 L 14.390625 0 L 1.8125 0 L 1.8125 -0.296875 Z M 2.21875 -0.296875 "/></g></g></g><g fill="#2e2a27" fill-opacity="1"><g transform="translate(31.457595, 30.910449)"><g><path d="M 2.09375 -0.296875 C 2.632812 -0.296875 3.109375 -0.457031 3.515625 -0.78125 C 3.921875 -1.101562 4.125 -1.488281 4.125 -1.9375 L 4.125 -16.234375 C 4.125 -16.679688 3.921875 -17.066406 3.515625 -17.390625 C 3.109375 -17.710938 2.625 -17.875 2.0625 -17.875 L 1.671875 -17.875 L 1.671875 -18.171875 L 8.515625 -18.171875 L 8.515625 -17.875 L 8.125 -17.875 C 7.570312 -17.875 7.097656 -17.722656 6.703125 -17.421875 C 6.316406 -17.117188 6.101562 -16.742188 6.0625 -16.296875 L 6.0625 -1.90625 C 6.082031 -1.457031 6.289062 -1.078125 6.6875 -0.765625 C 7.09375 -0.453125 7.570312 -0.296875 8.125 -0.296875 L 8.515625 -0.296875 L 8.546875 0 L 1.671875 0 L 1.671875 -0.296875 Z M 2.09375 -0.296875 "/></g></g></g><g fill="#2e2a27" fill-opacity="1"><g transform="translate(44.66565, 30.910449)"><g><path d="M 13.6875 -15.65625 C 14 -15.070312 14.15625 -14.363281 14.15625 -13.53125 C 14.15625 -12.707031 13.820312 -11.945312 13.15625 -11.25 C 12.488281 -10.550781 11.707031 -10.09375 10.8125 -9.875 C 12.289062 -9.71875 13.507812 -9.179688 14.46875 -8.265625 C 15.425781 -7.359375 15.90625 -6.363281 15.90625 -5.28125 C 15.90625 -4.207031 15.695312 -3.328125 15.28125 -2.640625 C 14.863281 -1.953125 14.316406 -1.425781 13.640625 -1.0625 C 12.328125 -0.351562 10.84375 0 9.1875 0 L 1.671875 0 L 1.671875 -0.296875 L 2.03125 -0.296875 C 2.53125 -0.296875 2.953125 -0.453125 3.296875 -0.765625 C 3.640625 -1.078125 3.820312 -1.46875 3.84375 -1.9375 L 3.84375 -16.234375 C 3.820312 -16.898438 3.519531 -17.375 2.9375 -17.65625 C 2.675781 -17.800781 2.375 -17.875 2.03125 -17.875 L 1.671875 -17.875 L 1.671875 -18.171875 L 7.84375 -18.171875 C 10.851562 -18.171875 12.800781 -17.332031 13.6875 -15.65625 Z M 13.75 -5.09375 C 13.75 -8.101562 11.398438 -9.609375 6.703125 -9.609375 L 6.703125 -9.90625 C 10.253906 -9.90625 12.03125 -11.148438 12.03125 -13.640625 C 12.03125 -16.054688 10.625 -17.265625 7.8125 -17.265625 L 5.75 -17.265625 L 5.75 -0.90625 L 9.15625 -0.90625 C 10.519531 -0.90625 11.625 -1.253906 12.46875 -1.953125 C 13.320312 -2.648438 13.75 -3.695312 13.75 -5.09375 Z M 13.75 -5.09375 "/></g></g></g><g fill="#2e2a27" fill-opacity="1"><g transform="translate(64.961628, 30.910449)"><g><path d="M 20 -0.296875 L 20.234375 -0.296875 L 20.234375 0 L 14.03125 0 L 14.03125 -0.296875 L 14.265625 -0.296875 C 14.648438 -0.296875 14.941406 -0.425781 15.140625 -0.6875 C 15.347656 -0.957031 15.453125 -1.207031 15.453125 -1.4375 C 15.453125 -1.664062 15.410156 -1.894531 15.328125 -2.125 L 13.65625 -6.15625 L 6 -6.15625 L 4.328125 -2.21875 C 4.234375 -1.945312 4.1875 -1.695312 4.1875 -1.46875 C 4.1875 -1.238281 4.285156 -0.984375 4.484375 -0.703125 C 4.679688 -0.429688 4.984375 -0.296875 5.390625 -0.296875 L 5.640625 -0.296875 L 5.640625 0 L -0.15625 0 L -0.15625 -0.296875 L 0.09375 -0.296875 C 0.519531 -0.296875 0.945312 -0.441406 1.375 -0.734375 C 1.8125 -1.035156 2.171875 -1.476562 2.453125 -2.0625 C 6.878906 -11.507812 9.179688 -16.457031 9.359375 -16.90625 C 9.703125 -17.75 9.882812 -18.316406 9.90625 -18.609375 L 10.1875 -18.609375 L 17.65625 -2.0625 C 18.25 -0.882812 19.03125 -0.296875 20 -0.296875 Z M 6.390625 -7.0625 L 13.296875 -7.0625 L 9.90625 -15.359375 Z M 6.390625 -7.0625 "/></g></g></g><g fill="#2e2a27" fill-opacity="1"><g transform="translate(88.074599, 30.910449)"><g/></g></g><g fill="#2e2a27" fill-opacity="1"><g transform="translate(98.677692, 30.910449)"><g><path d="M 14.296875 -20.875 L 14.296875 -18.328125 L 14 -18.328125 L 14 -18.78125 C 14 -19.1875 13.859375 -19.535156 13.578125 -19.828125 C 13.296875 -20.117188 12.941406 -20.265625 12.515625 -20.265625 L 6.125 -20.265625 L 6.125 -10.90625 L 11.234375 -10.90625 C 11.640625 -10.925781 11.984375 -11.078125 12.265625 -11.359375 C 12.546875 -11.640625 12.6875 -11.984375 12.6875 -12.390625 L 12.6875 -12.84375 L 13 -12.84375 L 13 -8.0625 L 12.6875 -8.0625 L 12.6875 -8.515625 C 12.6875 -8.921875 12.550781 -9.265625 12.28125 -9.546875 C 12.007812 -9.828125 11.671875 -9.976562 11.265625 -10 L 6.125 -10 L 6.125 -2.21875 C 6.125 -1.6875 6.3125 -1.234375 6.6875 -0.859375 C 7.070312 -0.484375 7.53125 -0.296875 8.0625 -0.296875 L 8.453125 -0.296875 L 8.453125 0 L 1.8125 0 L 1.8125 -0.296875 L 2.21875 -0.296875 C 2.738281 -0.296875 3.1875 -0.484375 3.5625 -0.859375 C 3.9375 -1.234375 4.132812 -1.6875 4.15625 -2.21875 L 4.15625 -19.171875 C 4.15625 -19.660156 3.957031 -20.070312 3.5625 -20.40625 C 3.164062 -20.738281 2.71875 -20.90625 2.21875 -20.90625 L 1.84375 -20.90625 L 1.8125 -21.203125 L 10.6875 -21.203125 C 11.320312 -21.203125 12.003906 -21.265625 12.734375 -21.390625 C 13.472656 -21.515625 13.992188 -21.632812 14.296875 -21.75 Z M 14.296875 -20.875 "/></g></g></g><g fill="#2e2a27" fill-opacity="1"><g transform="translate(118.095246, 30.910449)"><g><path d="M 2.09375 -0.296875 C 2.632812 -0.296875 3.109375 -0.457031 3.515625 -0.78125 C 3.921875 -1.101562 4.125 -1.488281 4.125 -1.9375 L 4.125 -16.234375 C 4.125 -16.679688 3.921875 -17.066406 3.515625 -17.390625 C 3.109375 -17.710938 2.625 -17.875 2.0625 -17.875 L 1.671875 -17.875 L 1.671875 -18.171875 L 8.515625 -18.171875 L 8.515625 -17.875 L 8.125 -17.875 C 7.570312 -17.875 7.097656 -17.722656 6.703125 -17.421875 C 6.316406 -17.117188 6.101562 -16.742188 6.0625 -16.296875 L 6.0625 -1.90625 C 6.082031 -1.457031 6.289062 -1.078125 6.6875 -0.765625 C 7.09375 -0.453125 7.570312 -0.296875 8.125 -0.296875 L 8.515625 -0.296875 L 8.546875 0 L 1.671875 0 L 1.671875 -0.296875 Z M 2.09375 -0.296875 "/></g></g></g><g fill="#2e2a27" fill-opacity="1"><g transform="translate(131.303301, 30.910449)"><g><path d="M 2.09375 -0.296875 C 2.570312 -0.296875 2.976562 -0.453125 3.3125 -0.765625 C 3.644531 -1.078125 3.820312 -1.457031 3.84375 -1.90625 L 3.84375 -16.234375 C 3.820312 -16.679688 3.632812 -17.066406 3.28125 -17.390625 C 2.925781 -17.710938 2.507812 -17.875 2.03125 -17.875 L 1.671875 -17.875 L 1.671875 -18.171875 L 7.9375 -18.171875 L 7.9375 -17.875 L 7.578125 -17.875 C 7.085938 -17.875 6.664062 -17.710938 6.3125 -17.390625 C 5.957031 -17.066406 5.78125 -16.679688 5.78125 -16.234375 L 5.78125 -0.9375 L 10.515625 -0.9375 C 11.441406 -0.9375 12.226562 -1.097656 12.875 -1.421875 C 13.519531 -1.742188 14.007812 -2.125 14.34375 -2.5625 C 14.675781 -3.007812 15.003906 -3.597656 15.328125 -4.328125 L 15.640625 -4.328125 L 13.96875 0 L 1.671875 0 L 1.671875 -0.296875 Z M 2.09375 -0.296875 "/></g></g></g><g fill="#2e2a27" fill-opacity="1"><g transform="translate(150.56941, 30.910449)"><g><path d="M 25.9375 -0.296875 L 26.390625 -0.296875 L 26.390625 0 L 20.09375 0 L 20.09375 -0.265625 L 20.546875 -0.265625 C 20.847656 -0.265625 21.113281 -0.378906 21.34375 -0.609375 C 21.570312 -0.847656 21.664062 -1.128906 21.625 -1.453125 L 20.0625 -13.9375 L 14.328125 -2.671875 C 13.765625 -1.429688 13.410156 -0.398438 13.265625 0.421875 L 12.96875 0.421875 L 5.671875 -13.65625 L 4.296875 -1.453125 C 4.253906 -1.148438 4.347656 -0.875 4.578125 -0.625 C 4.816406 -0.382812 5.097656 -0.265625 5.421875 -0.265625 L 5.84375 -0.265625 L 5.84375 0 L 0.25 0 L 0.25 -0.296875 L 0.703125 -0.296875 C 1.421875 -0.296875 1.984375 -0.5625 2.390625 -1.09375 C 2.597656 -1.351562 2.71875 -1.664062 2.75 -2.03125 L 5.125 -18.609375 L 5.421875 -18.609375 L 13.421875 -3.21875 L 21.140625 -18.609375 L 21.421875 -18.609375 L 23.875 -1.96875 C 23.957031 -1.46875 24.1875 -1.0625 24.5625 -0.75 C 24.945312 -0.445312 25.40625 -0.296875 25.9375 -0.296875 Z M 25.9375 -0.296875 "/></g></g></g><g fill="#2e2a27" fill-opacity="1"><g transform="translate(180.194789, 30.910449)"><g><path d="M 1.75 -1 C 1.695312 -1.238281 1.671875 -1.734375 1.671875 -2.484375 C 1.671875 -3.234375 1.800781 -3.988281 2.0625 -4.75 L 2.421875 -4.75 C 2.398438 -4.570312 2.390625 -4.394531 2.390625 -4.21875 C 2.390625 -3.125 2.75 -2.226562 3.46875 -1.53125 C 4.1875 -0.832031 5.179688 -0.484375 6.453125 -0.484375 C 7.785156 -0.484375 8.820312 -0.789062 9.5625 -1.40625 C 10.3125 -2.019531 10.6875 -2.816406 10.6875 -3.796875 C 10.6875 -4.773438 10.328125 -5.585938 9.609375 -6.234375 L 3.546875 -10.90625 C 2.578125 -11.738281 2.09375 -12.847656 2.09375 -14.234375 C 2.09375 -15.023438 2.304688 -15.753906 2.734375 -16.421875 C 3.171875 -17.085938 3.773438 -17.617188 4.546875 -18.015625 C 5.328125 -18.410156 6.242188 -18.609375 7.296875 -18.609375 C 8.347656 -18.609375 9.28125 -18.515625 10.09375 -18.328125 L 11.09375 -18.328125 L 11.15625 -15.03125 L 10.8125 -15.03125 C 10.8125 -15.875 10.519531 -16.523438 9.9375 -16.984375 C 9.351562 -17.453125 8.515625 -17.6875 7.421875 -17.6875 C 6.328125 -17.6875 5.425781 -17.410156 4.71875 -16.859375 C 4.019531 -16.304688 3.671875 -15.585938 3.671875 -14.703125 C 3.671875 -13.828125 4.0625 -13.066406 4.84375 -12.421875 L 10.96875 -7.703125 C 11.894531 -6.929688 12.359375 -5.859375 12.359375 -4.484375 C 12.359375 -3.109375 11.835938 -1.945312 10.796875 -1 C 9.753906 -0.0507812 8.488281 0.421875 7 0.421875 C 6.007812 0.421875 5.019531 0.300781 4.03125 0.0625 C 3.039062 -0.175781 2.28125 -0.53125 1.75 -1 Z M 1.75 -1 "/></g></g></g></g></g><g fill="#2e2a27" fill-opacity="1"><g transform="translate(129.278023, 210.904733)"><g><path d="M 1.421875 0 L 1.421875 -9.796875 L 7.375 -9.796875 L 7.375 -8.65625 L 2.65625 -8.65625 L 2.65625 -5.5625 L 7.03125 -5.5625 L 7.03125 -4.421875 L 2.65625 -4.421875 L 2.65625 -1.140625 L 7.53125 -1.140625 L 7.53125 0 Z M 1.421875 0 "/></g></g></g><g fill="#2e2a27" fill-opacity="1"><g transform="translate(145.42932, 210.904733)"><g><path d="M 4.6875 0.1875 C 3.90625 0.1875 3.226562 0.0546875 2.65625 -0.203125 C 2.082031 -0.472656 1.640625 -0.847656 1.328125 -1.328125 C 1.015625 -1.816406 0.851562 -2.378906 0.84375 -3.015625 L 2.078125 -3.015625 C 2.085938 -2.390625 2.332031 -1.894531 2.8125 -1.53125 C 3.300781 -1.175781 3.925781 -1 4.6875 -1 C 5.375 -1 5.921875 -1.132812 6.328125 -1.40625 C 6.734375 -1.675781 6.9375 -2.050781 6.9375 -2.53125 C 6.9375 -2.988281 6.738281 -3.351562 6.34375 -3.625 C 5.957031 -3.90625 5.320312 -4.148438 4.4375 -4.359375 C 3.226562 -4.640625 2.34375 -5.003906 1.78125 -5.453125 C 1.226562 -5.910156 0.953125 -6.519531 0.953125 -7.28125 C 0.953125 -8.113281 1.265625 -8.769531 1.890625 -9.25 C 2.523438 -9.738281 3.378906 -9.984375 4.453125 -9.984375 C 5.554688 -9.984375 6.425781 -9.707031 7.0625 -9.15625 C 7.695312 -8.601562 8.019531 -7.851562 8.03125 -6.90625 L 6.8125 -6.90625 C 6.800781 -7.488281 6.582031 -7.953125 6.15625 -8.296875 C 5.738281 -8.640625 5.171875 -8.8125 4.453125 -8.8125 C 3.753906 -8.8125 3.207031 -8.671875 2.8125 -8.390625 C 2.414062 -8.117188 2.21875 -7.75 2.21875 -7.28125 C 2.21875 -6.875 2.398438 -6.535156 2.765625 -6.265625 C 3.128906 -5.992188 3.789062 -5.738281 4.75 -5.5 C 6 -5.195312 6.890625 -4.8125 7.421875 -4.34375 C 7.953125 -3.882812 8.21875 -3.296875 8.21875 -2.578125 C 8.21875 -1.722656 7.894531 -1.046875 7.25 -0.546875 C 6.613281 -0.0546875 5.757812 0.1875 4.6875 0.1875 Z M 4.6875 0.1875 "/></g></g></g><g fill="#2e2a27" fill-opacity="1"><g transform="translate(162.196276, 210.904733)"><g><path d="M 3.796875 0 L 3.796875 -8.625 L 0.46875 -8.625 L 0.46875 -9.796875 L 8.328125 -9.796875 L 8.328125 -8.625 L 5.03125 -8.625 L 5.03125 0 Z M 3.796875 0 "/></g></g></g><g fill="#2e2a27" fill-opacity="1"><g transform="translate(178.725354, 210.904733)"><g><path d="M 1.796875 0.109375 C 1.515625 0.109375 1.285156 0.0195312 1.109375 -0.15625 C 0.941406 -0.332031 0.859375 -0.550781 0.859375 -0.8125 C 0.859375 -1.082031 0.941406 -1.300781 1.109375 -1.46875 C 1.285156 -1.632812 1.515625 -1.71875 1.796875 -1.71875 C 2.078125 -1.71875 2.304688 -1.632812 2.484375 -1.46875 C 2.660156 -1.300781 2.75 -1.082031 2.75 -0.8125 C 2.75 -0.550781 2.660156 -0.332031 2.484375 -0.15625 C 2.304688 0.0195312 2.078125 0.109375 1.796875 0.109375 Z M 1.796875 0.109375 "/></g></g></g><g fill="#2e2a27" fill-opacity="1"><g transform="translate(190.035355, 210.904733)"><g><path d="M 1.015625 0 L 1.015625 -0.921875 L 5.0625 -4.640625 C 5.53125 -5.085938 5.875 -5.5 6.09375 -5.875 C 6.320312 -6.25 6.4375 -6.640625 6.4375 -7.046875 C 6.4375 -7.597656 6.25 -8.046875 5.875 -8.390625 C 5.5 -8.734375 5.003906 -8.90625 4.390625 -8.90625 C 3.765625 -8.90625 3.257812 -8.710938 2.875 -8.328125 C 2.488281 -7.953125 2.285156 -7.425781 2.265625 -6.75 L 1.125 -6.75 C 1.132812 -7.40625 1.273438 -7.972656 1.546875 -8.453125 C 1.828125 -8.941406 2.207031 -9.316406 2.6875 -9.578125 C 3.175781 -9.847656 3.738281 -9.984375 4.375 -9.984375 C 5 -9.984375 5.554688 -9.851562 6.046875 -9.59375 C 6.546875 -9.34375 6.929688 -9 7.203125 -8.5625 C 7.484375 -8.125 7.625 -7.617188 7.625 -7.046875 C 7.625 -6.492188 7.476562 -5.941406 7.1875 -5.390625 C 6.90625 -4.835938 6.460938 -4.28125 5.859375 -3.71875 L 3.03125 -1.140625 L 7.828125 -1.140625 L 7.828125 0 Z M 1.015625 0 "/></g></g></g><g fill="#2e2a27" fill-opacity="1"><g transform="translate(206.718356, 210.904733)"><g><path d="M 4.90625 0.1875 C 4.09375 0.1875 3.390625 -0.015625 2.796875 -0.421875 C 2.203125 -0.835938 1.742188 -1.425781 1.421875 -2.1875 C 1.097656 -2.945312 0.9375 -3.851562 0.9375 -4.90625 C 0.9375 -5.945312 1.097656 -6.847656 1.421875 -7.609375 C 1.742188 -8.367188 2.203125 -8.953125 2.796875 -9.359375 C 3.390625 -9.773438 4.09375 -9.984375 4.90625 -9.984375 C 5.71875 -9.984375 6.414062 -9.773438 7 -9.359375 C 7.59375 -8.953125 8.046875 -8.367188 8.359375 -7.609375 C 8.679688 -6.847656 8.84375 -5.945312 8.84375 -4.90625 C 8.84375 -3.851562 8.679688 -2.945312 8.359375 -2.1875 C 8.046875 -1.425781 7.59375 -0.835938 7 -0.421875 C 6.414062 -0.015625 5.71875 0.1875 4.90625 0.1875 Z M 2.15625 -4.90625 C 2.15625 -3.695312 2.398438 -2.742188 2.890625 -2.046875 C 3.378906 -1.359375 4.050781 -1.015625 4.90625 -1.015625 C 5.75 -1.015625 6.410156 -1.359375 6.890625 -2.046875 C 7.378906 -2.742188 7.625 -3.695312 7.625 -4.90625 C 7.625 -6.101562 7.378906 -7.050781 6.890625 -7.75 C 6.410156 -8.445312 5.75 -8.796875 4.90625 -8.796875 C 4.050781 -8.796875 3.378906 -8.445312 2.890625 -7.75 C 2.398438 -7.050781 2.15625 -6.101562 2.15625 -4.90625 Z M 2.15625 -4.90625 "/></g></g></g><g fill="#2e2a27" fill-opacity="1"><g transform="translate(224.212904, 210.904733)"><g><path d="M 2.765625 0 L 2.765625 -7.0625 L 0.515625 -7.0625 L 0.515625 -8.21875 L 1.59375 -8.21875 C 2.019531 -8.21875 2.320312 -8.273438 2.5 -8.390625 C 2.675781 -8.515625 2.804688 -8.75 2.890625 -9.09375 L 3.03125 -9.796875 L 4 -9.796875 L 4 0 Z M 2.765625 0 "/></g></g></g><g fill="#2e2a27" fill-opacity="1"><g transform="translate(237.355882, 210.904733)"><g><path d="M 4.234375 0.1875 C 3.597656 0.1875 3.035156 0.0625 2.546875 -0.1875 C 2.054688 -0.4375 1.671875 -0.785156 1.390625 -1.234375 C 1.109375 -1.691406 0.953125 -2.222656 0.921875 -2.828125 L 2.125 -2.828125 C 2.164062 -2.265625 2.378906 -1.820312 2.765625 -1.5 C 3.148438 -1.175781 3.644531 -1.015625 4.25 -1.015625 C 4.894531 -1.015625 5.410156 -1.191406 5.796875 -1.546875 C 6.179688 -1.910156 6.375 -2.382812 6.375 -2.96875 C 6.375 -3.5625 6.175781 -4.03125 5.78125 -4.375 C 5.394531 -4.726562 4.882812 -4.90625 4.25 -4.90625 L 1.171875 -4.90625 L 1.546875 -9.796875 L 7.15625 -9.796875 L 7.15625 -8.65625 L 2.671875 -8.65625 L 2.46875 -6.046875 L 4.25 -6.046875 C 4.925781 -6.046875 5.515625 -5.914062 6.015625 -5.65625 C 6.515625 -5.394531 6.90625 -5.03125 7.1875 -4.5625 C 7.46875 -4.09375 7.609375 -3.550781 7.609375 -2.9375 C 7.609375 -2.320312 7.46875 -1.78125 7.1875 -1.3125 C 6.90625 -0.84375 6.507812 -0.472656 6 -0.203125 C 5.5 0.0546875 4.910156 0.1875 4.234375 0.1875 Z M 4.234375 0.1875 "/></g></g></g><path stroke-linecap="butt" transform="matrix(-0.75, 0, 0, -0.75, 111.443464, 207.904734)" fill="none" stroke-linejoin="miter" d="M -0.00246416 0.497978 L 63.336082 0.497978 " stroke="#000000" stroke-width="1" stroke-opacity="1" stroke-miterlimit="4"/><path stroke-linecap="butt" transform="matrix(-0.75, 0, 0, -0.75, 313.661322, 208.279734)" fill="none" stroke-linejoin="miter" d="M 0.00155367 0.497978 L 70.142183 0.497978 " stroke="#000000" stroke-width="1" stroke-opacity="1" stroke-miterlimit="4"/></svg>